<?xml version="1.0" encoding="UTF-8" standalone="no"?>
<!DOCTYPE svg PUBLIC "-//W3C//DTD SVG 1.1//EN"
 "http://www.w3.org/Graphics/SVG/1.1/DTD/svg11.dtd">
<!-- Generated by graphviz version 2.38.0 (20140413.2041)
 -->
<!-- Title: controllers_diagram Pages: 1 -->
<svg width="827pt" height="642pt"
 viewBox="0.00 0.00 826.87 641.91" xmlns="http://www.w3.org/2000/svg" xmlns:xlink="http://www.w3.org/1999/xlink">
<g id="graph0" class="graph" transform="scale(1 1) rotate(0) translate(286.187 309.408)">
<title>controllers_diagram</title>
<polygon fill="white" stroke="none" points="-286.187,332.5 -286.187,-309.408 540.688,-309.408 540.688,332.5 -286.187,332.5"/>
<!-- _diagram_info -->
<g id="node1" class="node"><title>_diagram_info</title>
<text text-anchor="start" x="337.312" y="269.9" font-family="Times,serif" font-size="13.00">Controllers diagram</text>
<text text-anchor="start" x="337.312" y="282.9" font-family="Times,serif" font-size="13.00">Date: Aug 11 2014 &#45; 13:36</text>
<text text-anchor="start" x="337.312" y="295.9" font-family="Times,serif" font-size="13.00">Migration version: 20140807012019</text>
<text text-anchor="start" x="337.312" y="308.9" font-family="Times,serif" font-size="13.00">Generated by RailRoady 1.1.1</text>
<text text-anchor="start" x="337.312" y="321.9" font-family="Times,serif" font-size="13.00">http://railroady.prestonlee.com</text>
</g>
<!-- ApplicationController -->
<g id="node2" class="node"><title>ApplicationController</title>
<path fill="none" stroke="black" d="M-89.3649,43.7899C-89.3649,43.7899 35.5804,43.7899 35.5804,43.7899 41.5804,43.7899 47.5804,37.7899 47.5804,31.7899 47.5804,31.7899 47.5804,-92.2101 47.5804,-92.2101 47.5804,-98.2101 41.5804,-104.21 35.5804,-104.21 35.5804,-104.21 -89.3649,-104.21 -89.3649,-104.21 -95.3649,-104.21 -101.365,-98.2101 -101.365,-92.2101 -101.365,-92.2101 -101.365,31.7899 -101.365,31.7899 -101.365,37.7899 -95.3649,43.7899 -89.3649,43.7899"/>
<text text-anchor="middle" x="-26.8923" y="-89.0101" font-family="Times,serif" font-size="14.00">ApplicationController</text>
<polyline fill="none" stroke="black" points="-101.365,-82.2101 47.5804,-82.2101 "/>
<polyline fill="none" stroke="black" points="-101.365,-58.2101 47.5804,-58.2101 "/>
<polyline fill="none" stroke="black" points="-101.365,-34.2101 47.5804,-34.2101 "/>
<text text-anchor="start" x="-93.3649" y="-19.0101" font-family="Times,serif" font-size="14.00">_layout</text>
<text text-anchor="start" x="-93.3649" y="-5.01009" font-family="Times,serif" font-size="14.00">authentication_required</text>
<text text-anchor="start" x="-93.3649" y="8.98991" font-family="Times,serif" font-size="14.00">current_user</text>
<text text-anchor="start" x="-93.3649" y="22.9899" font-family="Times,serif" font-size="14.00">logged_in?</text>
<text text-anchor="start" x="-93.3649" y="36.9899" font-family="Times,serif" font-size="14.00">registered?</text>
</g>
<!-- GroupsController -->
<g id="node3" class="node"><title>GroupsController</title>
<path fill="none" stroke="black" d="M154.422,68.6988C154.422,68.6988 245.187,68.6988 245.187,68.6988 251.187,68.6988 257.187,62.6988 257.187,56.6988 257.187,56.6988 257.187,-121.301 257.187,-121.301 257.187,-127.301 251.187,-133.301 245.187,-133.301 245.187,-133.301 154.422,-133.301 154.422,-133.301 148.422,-133.301 142.422,-127.301 142.422,-121.301 142.422,-121.301 142.422,56.6988 142.422,56.6988 142.422,62.6988 148.422,68.6988 154.422,68.6988"/>
<text text-anchor="middle" x="199.804" y="-118.101" font-family="Times,serif" font-size="14.00">GroupsController</text>
<polyline fill="none" stroke="black" points="142.422,-111.301 257.187,-111.301 "/>
<text text-anchor="start" x="150.422" y="-96.1012" font-family="Times,serif" font-size="14.00">create</text>
<text text-anchor="start" x="150.422" y="-82.1012" font-family="Times,serif" font-size="14.00">destroy</text>
<text text-anchor="start" x="150.422" y="-68.1012" font-family="Times,serif" font-size="14.00">edit</text>
<text text-anchor="start" x="150.422" y="-54.1012" font-family="Times,serif" font-size="14.00">index</text>
<text text-anchor="start" x="150.422" y="-40.1012" font-family="Times,serif" font-size="14.00">new</text>
<text text-anchor="start" x="150.422" y="-26.1012" font-family="Times,serif" font-size="14.00">show</text>
<text text-anchor="start" x="150.422" y="-12.1012" font-family="Times,serif" font-size="14.00">update</text>
<polyline fill="none" stroke="black" points="142.422,-5.30117 257.187,-5.30117 "/>
<polyline fill="none" stroke="black" points="142.422,18.6988 257.187,18.6988 "/>
<text text-anchor="start" x="150.422" y="33.8988" font-family="Times,serif" font-size="14.00">_layout</text>
<text text-anchor="start" x="150.422" y="47.8988" font-family="Times,serif" font-size="14.00">group_params</text>
<text text-anchor="start" x="150.422" y="61.8988" font-family="Times,serif" font-size="14.00">set_group</text>
</g>
<!-- ApplicationController&#45;&gt;GroupsController -->
<g id="edge1" class="edge"><title>ApplicationController&#45;&gt;GroupsController</title>
<path fill="none" stroke="black" d="M47.6507,-30.8977C78.3645,-31.181 113.401,-31.5042 142.106,-31.7689"/>
</g>
<!-- PiecesController -->
<g id="node4" class="node"><title>PiecesController</title>
<path fill="none" stroke="black" d="M-60.692,237.325C-60.692,237.325 24.6185,237.325 24.6185,237.325 30.6185,237.325 36.6185,231.325 36.6185,225.325 36.6185,225.325 36.6185,159.325 36.6185,159.325 36.6185,153.325 30.6185,147.325 24.6185,147.325 24.6185,147.325 -60.692,147.325 -60.692,147.325 -66.692,147.325 -72.692,153.325 -72.692,159.325 -72.692,159.325 -72.692,225.325 -72.692,225.325 -72.692,231.325 -66.692,237.325 -60.692,237.325"/>
<text text-anchor="middle" x="-18.0368" y="162.525" font-family="Times,serif" font-size="14.00">PiecesController</text>
<polyline fill="none" stroke="black" points="-72.692,169.325 36.6185,169.325 "/>
<text text-anchor="start" x="-64.692" y="184.525" font-family="Times,serif" font-size="14.00">index</text>
<polyline fill="none" stroke="black" points="-72.692,191.325 36.6185,191.325 "/>
<polyline fill="none" stroke="black" points="-72.692,215.325 36.6185,215.325 "/>
<text text-anchor="start" x="-64.692" y="230.525" font-family="Times,serif" font-size="14.00">_layout</text>
</g>
<!-- ApplicationController&#45;&gt;PiecesController -->
<g id="edge2" class="edge"><title>ApplicationController&#45;&gt;PiecesController</title>
<path fill="none" stroke="black" d="M-23.9435,43.8909C-22.585,78.0289 -21.0167,117.44 -19.8376,147.07"/>
</g>
<!-- RequestsController -->
<g id="node5" class="node"><title>RequestsController</title>
<path fill="none" stroke="black" d="M-260.635,-138.277C-260.635,-138.277 -160.539,-138.277 -160.539,-138.277 -154.539,-138.277 -148.539,-144.277 -148.539,-150.277 -148.539,-150.277 -148.539,-244.277 -148.539,-244.277 -148.539,-250.277 -154.539,-256.277 -160.539,-256.277 -160.539,-256.277 -260.635,-256.277 -260.635,-256.277 -266.635,-256.277 -272.635,-250.277 -272.635,-244.277 -272.635,-244.277 -272.635,-150.277 -272.635,-150.277 -272.635,-144.277 -266.635,-138.277 -260.635,-138.277"/>
<text text-anchor="middle" x="-210.587" y="-241.077" font-family="Times,serif" font-size="14.00">RequestsController</text>
<polyline fill="none" stroke="black" points="-272.635,-234.277 -148.539,-234.277 "/>
<text text-anchor="start" x="-264.635" y="-219.077" font-family="Times,serif" font-size="14.00">create</text>
<text text-anchor="start" x="-264.635" y="-205.077" font-family="Times,serif" font-size="14.00">update</text>
<polyline fill="none" stroke="black" points="-272.635,-198.277 -148.539,-198.277 "/>
<polyline fill="none" stroke="black" points="-272.635,-174.277 -148.539,-174.277 "/>
<text text-anchor="start" x="-264.635" y="-159.077" font-family="Times,serif" font-size="14.00">_layout</text>
<text text-anchor="start" x="-264.635" y="-145.077" font-family="Times,serif" font-size="14.00">request_params</text>
</g>
<!-- ApplicationController&#45;&gt;RequestsController -->
<g id="edge3" class="edge"><title>ApplicationController&#45;&gt;RequestsController</title>
<path fill="none" stroke="black" d="M-101.608,-98.1628C-117.103,-112.256 -133.273,-126.962 -148.268,-140.6"/>
</g>
<!-- SearchController -->
<g id="node6" class="node"><title>SearchController</title>
<path fill="none" stroke="black" d="M133.089,-199.24C133.089,-199.24 277.51,-199.24 277.51,-199.24 283.51,-199.24 289.51,-205.24 289.51,-211.24 289.51,-211.24 289.51,-277.24 289.51,-277.24 289.51,-283.24 283.51,-289.24 277.51,-289.24 277.51,-289.24 133.089,-289.24 133.089,-289.24 127.089,-289.24 121.089,-283.24 121.089,-277.24 121.089,-277.24 121.089,-211.24 121.089,-211.24 121.089,-205.24 127.089,-199.24 133.089,-199.24"/>
<text text-anchor="middle" x="205.3" y="-274.04" font-family="Times,serif" font-size="14.00">SearchController</text>
<polyline fill="none" stroke="black" points="121.089,-267.24 289.51,-267.24 "/>
<text text-anchor="start" x="129.089" y="-252.04" font-family="Times,serif" font-size="14.00">get_instruments_for_group</text>
<polyline fill="none" stroke="black" points="121.089,-245.24 289.51,-245.24 "/>
<polyline fill="none" stroke="black" points="121.089,-221.24 289.51,-221.24 "/>
<text text-anchor="start" x="129.089" y="-206.04" font-family="Times,serif" font-size="14.00">_layout</text>
</g>
<!-- ApplicationController&#45;&gt;SearchController -->
<g id="edge4" class="edge"><title>ApplicationController&#45;&gt;SearchController</title>
<path fill="none" stroke="black" d="M47.8528,-99.1088C83.3822,-131.859 124.855,-170.088 156.315,-199.087"/>
</g>
<!-- SessionsController -->
<g id="node7" class="node"><title>SessionsController</title>
<path fill="none" stroke="black" d="M-60.5273,-200.908C-60.5273,-200.908 37.252,-200.908 37.252,-200.908 43.252,-200.908 49.252,-206.908 49.252,-212.908 49.252,-212.908 49.252,-292.908 49.252,-292.908 49.252,-298.908 43.252,-304.908 37.252,-304.908 37.252,-304.908 -60.5273,-304.908 -60.5273,-304.908 -66.5273,-304.908 -72.5273,-298.908 -72.5273,-292.908 -72.5273,-292.908 -72.5273,-212.908 -72.5273,-212.908 -72.5273,-206.908 -66.5273,-200.908 -60.5273,-200.908"/>
<text text-anchor="middle" x="-11.6377" y="-289.708" font-family="Times,serif" font-size="14.00">SessionsController</text>
<polyline fill="none" stroke="black" points="-72.5273,-282.908 49.252,-282.908 "/>
<text text-anchor="start" x="-64.5273" y="-267.708" font-family="Times,serif" font-size="14.00">create</text>
<text text-anchor="start" x="-64.5273" y="-253.708" font-family="Times,serif" font-size="14.00">destroy</text>
<polyline fill="none" stroke="black" points="-72.5273,-246.908 49.252,-246.908 "/>
<polyline fill="none" stroke="black" points="-72.5273,-222.908 49.252,-222.908 "/>
<text text-anchor="start" x="-64.5273" y="-207.708" font-family="Times,serif" font-size="14.00">_layout</text>
</g>
<!-- ApplicationController&#45;&gt;SessionsController -->
<g id="edge5" class="edge"><title>ApplicationController&#45;&gt;SessionsController</title>
<path fill="none" stroke="black" d="M-21.8127,-104.365C-19.6459,-135.997 -17.1692,-172.154 -15.2019,-200.875"/>
</g>
<!-- StaticPagesController -->
<g id="node8" class="node"><title>StaticPagesController</title>
<path fill="none" stroke="black" d="M-270.187,174.826C-270.187,174.826 -156.097,174.826 -156.097,174.826 -150.097,174.826 -144.097,168.826 -144.097,162.826 -144.097,162.826 -144.097,96.8256 -144.097,96.8256 -144.097,90.8256 -150.097,84.8256 -156.097,84.8256 -156.097,84.8256 -270.187,84.8256 -270.187,84.8256 -276.187,84.8256 -282.187,90.8256 -282.187,96.8256 -282.187,96.8256 -282.187,162.826 -282.187,162.826 -282.187,168.826 -276.187,174.826 -270.187,174.826"/>
<text text-anchor="middle" x="-213.142" y="100.026" font-family="Times,serif" font-size="14.00">StaticPagesController</text>
<polyline fill="none" stroke="black" points="-282.187,106.826 -144.097,106.826 "/>
<text text-anchor="start" x="-274.187" y="122.026" font-family="Times,serif" font-size="14.00">about</text>
<polyline fill="none" stroke="black" points="-282.187,128.826 -144.097,128.826 "/>
<polyline fill="none" stroke="black" points="-282.187,152.826 -144.097,152.826 "/>
<text text-anchor="start" x="-274.187" y="168.026" font-family="Times,serif" font-size="14.00">_layout</text>
</g>
<!-- ApplicationController&#45;&gt;StaticPagesController -->
<g id="edge6" class="edge"><title>ApplicationController&#45;&gt;StaticPagesController</title>
<path fill="none" stroke="black" d="M-101.574,33.9604C-121.309,50.9175 -142.194,68.8636 -160.492,84.5858"/>
</g>
<!-- UsersController -->
<g id="node9" class="node"><title>UsersController</title>
<path fill="none" stroke="black" d="M161.982,281.068C161.982,281.068 243.41,281.068 243.41,281.068 249.41,281.068 255.41,275.068 255.41,269.068 255.41,269.068 255.41,91.0677 255.41,91.0677 255.41,85.0677 249.41,79.0677 243.41,79.0677 243.41,79.0677 161.982,79.0677 161.982,79.0677 155.982,79.0677 149.982,85.0677 149.982,91.0677 149.982,91.0677 149.982,269.068 149.982,269.068 149.982,275.068 155.982,281.068 161.982,281.068"/>
<text text-anchor="middle" x="202.696" y="94.2677" font-family="Times,serif" font-size="14.00">UsersController</text>
<polyline fill="none" stroke="black" points="149.982,101.068 255.41,101.068 "/>
<text text-anchor="start" x="157.982" y="116.268" font-family="Times,serif" font-size="14.00">create</text>
<text text-anchor="start" x="157.982" y="130.268" font-family="Times,serif" font-size="14.00">destroy</text>
<text text-anchor="start" x="157.982" y="144.268" font-family="Times,serif" font-size="14.00">edit</text>
<text text-anchor="start" x="157.982" y="158.268" font-family="Times,serif" font-size="14.00">index</text>
<text text-anchor="start" x="157.982" y="172.268" font-family="Times,serif" font-size="14.00">send_email</text>
<text text-anchor="start" x="157.982" y="186.268" font-family="Times,serif" font-size="14.00">show</text>
<text text-anchor="start" x="157.982" y="200.268" font-family="Times,serif" font-size="14.00">update</text>
<polyline fill="none" stroke="black" points="149.982,207.068 255.41,207.068 "/>
<polyline fill="none" stroke="black" points="149.982,231.068 255.41,231.068 "/>
<text text-anchor="start" x="157.982" y="246.268" font-family="Times,serif" font-size="14.00">_layout</text>
<text text-anchor="start" x="157.982" y="260.268" font-family="Times,serif" font-size="14.00">set_user</text>
<text text-anchor="start" x="157.982" y="274.268" font-family="Times,serif" font-size="14.00">user_params</text>
</g>
<!-- ApplicationController&#45;&gt;UsersController -->
<g id="edge7" class="edge"><title>ApplicationController&#45;&gt;UsersController</title>
<path fill="none" stroke="black" d="M47.6484,38.0611C81.0366,68.641 119.627,103.985 149.955,131.763"/>
</g>
</g>
</svg>
