<?xml version="1.0" encoding="UTF-8" standalone="no"?>
<!DOCTYPE svg PUBLIC "-//W3C//DTD SVG 1.1//EN"
 "http://www.w3.org/Graphics/SVG/1.1/DTD/svg11.dtd">
<!-- Generated by graphviz version 2.38.0 (20140413.2041)
 -->
<!-- Title: controllers_diagram Pages: 1 -->
<svg width="660pt" height="526pt"
 viewBox="0.00 0.00 660.18 526.05" xmlns="http://www.w3.org/2000/svg" xmlns:xlink="http://www.w3.org/1999/xlink">
<g id="graph0" class="graph" transform="scale(1 1) rotate(0) translate(189.493 263.232)">
<title>controllers_diagram</title>
<polygon fill="white" stroke="none" points="-189.493,262.814 -189.493,-263.232 470.688,-263.232 470.688,262.814 -189.493,262.814"/>
<!-- _diagram_info -->
<g id="node1" class="node"><title>_diagram_info</title>
<text text-anchor="start" x="267.312" y="199.9" font-family="Times,serif" font-size="13.00">Controllers diagram</text>
<text text-anchor="start" x="267.312" y="212.9" font-family="Times,serif" font-size="13.00">Date: Aug 03 2014 &#45; 20:59</text>
<text text-anchor="start" x="267.312" y="225.9" font-family="Times,serif" font-size="13.00">Migration version: 20140804003346</text>
<text text-anchor="start" x="267.312" y="238.9" font-family="Times,serif" font-size="13.00">Generated by RailRoady 1.1.1</text>
<text text-anchor="start" x="267.312" y="251.9" font-family="Times,serif" font-size="13.00">http://railroady.prestonlee.com</text>
</g>
<!-- ApplicationController -->
<g id="node2" class="node"><title>ApplicationController</title>
<path fill="none" stroke="black" d="M-52.8305,47.7851C-52.8305,47.7851 62.8111,47.7851 62.8111,47.7851 68.8111,47.7851 74.8111,41.7851 74.8111,35.7851 74.8111,35.7851 74.8111,-32.2149 74.8111,-32.2149 74.8111,-38.2149 68.8111,-44.2149 62.8111,-44.2149 62.8111,-44.2149 -52.8305,-44.2149 -52.8305,-44.2149 -58.8305,-44.2149 -64.8305,-38.2149 -64.8305,-32.2149 -64.8305,-32.2149 -64.8305,35.7851 -64.8305,35.7851 -64.8305,41.7851 -58.8305,47.7851 -52.8305,47.7851"/>
<text text-anchor="middle" x="4.99033" y="-29.0149" font-family="Times,serif" font-size="14.00">ApplicationController</text>
<polyline fill="none" stroke="black" points="-64.8305,-22.2149 74.8111,-22.2149 "/>
<polyline fill="none" stroke="black" points="-64.8305,1.78505 74.8111,1.78505 "/>
<polyline fill="none" stroke="black" points="-64.8305,25.7851 74.8111,25.7851 "/>
<text text-anchor="start" x="-56.8305" y="40.9851" font-family="Times,serif" font-size="14.00">_layout</text>
</g>
<!-- GroupsController -->
<g id="node3" class="node"><title>GroupsController</title>
<path fill="none" stroke="black" d="M83.4509,258.314C83.4509,258.314 174.217,258.314 174.217,258.314 180.217,258.314 186.217,252.314 186.217,246.314 186.217,246.314 186.217,68.3145 186.217,68.3145 186.217,62.3145 180.217,56.3145 174.217,56.3145 174.217,56.3145 83.4509,56.3145 83.4509,56.3145 77.4509,56.3145 71.4509,62.3145 71.4509,68.3145 71.4509,68.3145 71.4509,246.314 71.4509,246.314 71.4509,252.314 77.4509,258.314 83.4509,258.314"/>
<text text-anchor="middle" x="128.834" y="71.5145" font-family="Times,serif" font-size="14.00">GroupsController</text>
<polyline fill="none" stroke="black" points="71.4509,78.3145 186.217,78.3145 "/>
<text text-anchor="start" x="79.4509" y="93.5145" font-family="Times,serif" font-size="14.00">create</text>
<text text-anchor="start" x="79.4509" y="107.514" font-family="Times,serif" font-size="14.00">destroy</text>
<text text-anchor="start" x="79.4509" y="121.514" font-family="Times,serif" font-size="14.00">edit</text>
<text text-anchor="start" x="79.4509" y="135.514" font-family="Times,serif" font-size="14.00">index</text>
<text text-anchor="start" x="79.4509" y="149.514" font-family="Times,serif" font-size="14.00">new</text>
<text text-anchor="start" x="79.4509" y="163.514" font-family="Times,serif" font-size="14.00">show</text>
<text text-anchor="start" x="79.4509" y="177.514" font-family="Times,serif" font-size="14.00">update</text>
<polyline fill="none" stroke="black" points="71.4509,184.314 186.217,184.314 "/>
<polyline fill="none" stroke="black" points="71.4509,208.314 186.217,208.314 "/>
<text text-anchor="start" x="79.4509" y="223.514" font-family="Times,serif" font-size="14.00">_layout</text>
<text text-anchor="start" x="79.4509" y="237.514" font-family="Times,serif" font-size="14.00">group_params</text>
<text text-anchor="start" x="79.4509" y="251.514" font-family="Times,serif" font-size="14.00">set_group</text>
</g>
<!-- ApplicationController&#45;&gt;GroupsController -->
<g id="edge1" class="edge"><title>ApplicationController&#45;&gt;GroupsController</title>
<path fill="none" stroke="black" d="M41.8121,48.0279C51.0811,59.6685 61.2534,72.4433 71.2726,85.026"/>
</g>
<!-- PiecesController -->
<g id="node4" class="node"><title>PiecesController</title>
<path fill="none" stroke="black" d="M-164.347,204.391C-164.347,204.391 -79.0365,204.391 -79.0365,204.391 -73.0365,204.391 -67.0365,198.391 -67.0365,192.391 -67.0365,192.391 -67.0365,124.391 -67.0365,124.391 -67.0365,118.391 -73.0365,112.391 -79.0365,112.391 -79.0365,112.391 -164.347,112.391 -164.347,112.391 -170.347,112.391 -176.347,118.391 -176.347,124.391 -176.347,124.391 -176.347,192.391 -176.347,192.391 -176.347,198.391 -170.347,204.391 -164.347,204.391"/>
<text text-anchor="middle" x="-121.692" y="127.591" font-family="Times,serif" font-size="14.00">PiecesController</text>
<polyline fill="none" stroke="black" points="-176.347,134.391 -67.0365,134.391 "/>
<polyline fill="none" stroke="black" points="-176.347,158.391 -67.0365,158.391 "/>
<polyline fill="none" stroke="black" points="-176.347,182.391 -67.0365,182.391 "/>
<text text-anchor="start" x="-168.347" y="197.591" font-family="Times,serif" font-size="14.00">_layout</text>
</g>
<!-- ApplicationController&#45;&gt;PiecesController -->
<g id="edge2" class="edge"><title>ApplicationController&#45;&gt;PiecesController</title>
<path fill="none" stroke="black" d="M-32.3333,47.925C-48.7548,68.2254 -68.0002,92.0168 -84.4162,112.31"/>
</g>
<!-- RequestsController -->
<g id="node5" class="node"><title>RequestsController</title>
<path fill="none" stroke="black" d="M-173.493,-108.604C-173.493,-108.604 -73.3964,-108.604 -73.3964,-108.604 -67.3964,-108.604 -61.3964,-114.604 -61.3964,-120.604 -61.3964,-120.604 -61.3964,-188.604 -61.3964,-188.604 -61.3964,-194.604 -67.3964,-200.604 -73.3964,-200.604 -73.3964,-200.604 -173.493,-200.604 -173.493,-200.604 -179.493,-200.604 -185.493,-194.604 -185.493,-188.604 -185.493,-188.604 -185.493,-120.604 -185.493,-120.604 -185.493,-114.604 -179.493,-108.604 -173.493,-108.604"/>
<text text-anchor="middle" x="-123.445" y="-185.404" font-family="Times,serif" font-size="14.00">RequestsController</text>
<polyline fill="none" stroke="black" points="-185.493,-178.604 -61.3964,-178.604 "/>
<polyline fill="none" stroke="black" points="-185.493,-154.604 -61.3964,-154.604 "/>
<polyline fill="none" stroke="black" points="-185.493,-130.604 -61.3964,-130.604 "/>
<text text-anchor="start" x="-177.493" y="-115.404" font-family="Times,serif" font-size="14.00">_layout</text>
</g>
<!-- ApplicationController&#45;&gt;RequestsController -->
<g id="edge3" class="edge"><title>ApplicationController&#45;&gt;RequestsController</title>
<path fill="none" stroke="black" d="M-32.8498,-44.2909C-49.4985,-64.5632 -69.0102,-88.3216 -85.6534,-108.587"/>
</g>
<!-- UsersController -->
<g id="node6" class="node"><title>UsersController</title>
<path fill="none" stroke="black" d="M85.732,-56.732C85.732,-56.732 167.16,-56.732 167.16,-56.732 173.16,-56.732 179.16,-62.732 179.16,-68.732 179.16,-68.732 179.16,-246.732 179.16,-246.732 179.16,-252.732 173.16,-258.732 167.16,-258.732 167.16,-258.732 85.732,-258.732 85.732,-258.732 79.732,-258.732 73.732,-252.732 73.732,-246.732 73.732,-246.732 73.732,-68.732 73.732,-68.732 73.732,-62.732 79.732,-56.732 85.732,-56.732"/>
<text text-anchor="middle" x="126.446" y="-243.532" font-family="Times,serif" font-size="14.00">UsersController</text>
<polyline fill="none" stroke="black" points="73.732,-236.732 179.16,-236.732 "/>
<text text-anchor="start" x="81.732" y="-221.532" font-family="Times,serif" font-size="14.00">create</text>
<text text-anchor="start" x="81.732" y="-207.532" font-family="Times,serif" font-size="14.00">destroy</text>
<text text-anchor="start" x="81.732" y="-193.532" font-family="Times,serif" font-size="14.00">edit</text>
<text text-anchor="start" x="81.732" y="-179.532" font-family="Times,serif" font-size="14.00">index</text>
<text text-anchor="start" x="81.732" y="-165.532" font-family="Times,serif" font-size="14.00">new</text>
<text text-anchor="start" x="81.732" y="-151.532" font-family="Times,serif" font-size="14.00">show</text>
<text text-anchor="start" x="81.732" y="-137.532" font-family="Times,serif" font-size="14.00">update</text>
<polyline fill="none" stroke="black" points="73.732,-130.732 179.16,-130.732 "/>
<polyline fill="none" stroke="black" points="73.732,-106.732 179.16,-106.732 "/>
<text text-anchor="start" x="81.732" y="-91.532" font-family="Times,serif" font-size="14.00">_layout</text>
<text text-anchor="start" x="81.732" y="-77.532" font-family="Times,serif" font-size="14.00">set_user</text>
<text text-anchor="start" x="81.732" y="-63.532" font-family="Times,serif" font-size="14.00">user_params</text>
</g>
<!-- ApplicationController&#45;&gt;UsersController -->
<g id="edge4" class="edge"><title>ApplicationController&#45;&gt;UsersController</title>
<path fill="none" stroke="black" d="M40.1203,-44.3539C50.5592,-58.0641 62.2332,-73.3965 73.5394,-88.2459"/>
</g>
</g>
</svg>
