<?xml version="1.0" encoding="UTF-8" standalone="no"?>
<!DOCTYPE svg PUBLIC "-//W3C//DTD SVG 1.1//EN"
 "http://www.w3.org/Graphics/SVG/1.1/DTD/svg11.dtd">
<!-- Generated by graphviz version 2.38.0 (20140413.2041)
 -->
<!-- Title: models_diagram Pages: 1 -->
<svg width="518pt" height="441pt"
 viewBox="0.00 0.00 517.69 441.00" xmlns="http://www.w3.org/2000/svg" xmlns:xlink="http://www.w3.org/1999/xlink">
<g id="graph0" class="graph" transform="scale(1 1) rotate(0) translate(4 437)">
<title>models_diagram</title>
<polygon fill="white" stroke="none" points="-4,4 -4,-437 513.688,-437 513.688,4 -4,4"/>
<!-- _diagram_info -->
<g id="node1" class="node"><title>_diagram_info</title>
<text text-anchor="start" x="8" y="-418.6" font-family="Times,serif" font-size="13.00">Models diagram</text>
<text text-anchor="start" x="8" y="-405.6" font-family="Times,serif" font-size="13.00">Date: Aug 03 2014 &#45; 20:59</text>
<text text-anchor="start" x="8" y="-392.6" font-family="Times,serif" font-size="13.00">Migration version: 20140804003346</text>
<text text-anchor="start" x="8" y="-379.6" font-family="Times,serif" font-size="13.00">Generated by RailRoady 1.1.1</text>
<text text-anchor="start" x="8" y="-366.6" font-family="Times,serif" font-size="13.00">http://railroady.prestonlee.com</text>
</g>
<!-- Group -->
<g id="node2" class="node"><title>Group</title>
<ellipse fill="none" stroke="black" cx="244.688" cy="-306" rx="32.9081" ry="18"/>
<text text-anchor="middle" x="244.688" y="-301.8" font-family="Times,serif" font-size="14.00">Group</text>
</g>
<!-- GroupPiece -->
<g id="node3" class="node"><title>GroupPiece</title>
<ellipse fill="none" stroke="black" cx="168.688" cy="-18" rx="51.7088" ry="18"/>
<text text-anchor="middle" x="168.688" y="-13.8" font-family="Times,serif" font-size="14.00">GroupPiece</text>
</g>
<!-- Group&#45;&gt;GroupPiece -->
<g id="edge3" class="edge"><title>Group&#45;&gt;GroupPiece</title>
<path fill="none" stroke="#1ad9f9" d="M216.302,-287.695C203.268,-278.504 188.552,-266.175 178.688,-252 140.153,-196.627 141.494,-174.591 130.688,-108 128.125,-92.2066 125.791,-87.2324 130.688,-72 133.962,-61.814 139.997,-51.9261 146.308,-43.5042"/>
<ellipse fill="none" stroke="#1ad9f9" cx="219.624" cy="-289.958" rx="4.00002" ry="4.00002"/>
<polygon fill="#1ad9f9" stroke="#1ad9f9" points="146.373,-43.4232 156.134,-38.4252 149.497,-39.5187 152.62,-35.6142 152.62,-35.6142 152.62,-35.6142 149.497,-39.5187 149.106,-32.8032 146.373,-43.4232 146.373,-43.4232"/>
</g>
<!-- Piece -->
<g id="node6" class="node"><title>Piece</title>
<ellipse fill="none" stroke="black" cx="168.688" cy="-90" rx="29.0172" ry="18"/>
<text text-anchor="middle" x="168.688" y="-85.8" font-family="Times,serif" font-size="14.00">Piece</text>
</g>
<!-- Group&#45;&gt;Piece -->
<g id="edge4" class="edge"><title>Group&#45;&gt;Piece</title>
<path fill="none" stroke="#77bd7b" d="M224.749,-281.298C206.103,-257.459 179.549,-218.771 168.688,-180 163.035,-159.822 163.371,-136.045 164.938,-118.145"/>
<polygon fill="#77bd7b" stroke="#77bd7b" points="224.97,-281.574 227.704,-292.194 228.094,-285.478 231.217,-289.382 231.217,-289.382 231.217,-289.382 228.094,-285.478 234.731,-286.571 224.97,-281.574 224.97,-281.574"/>
<polygon fill="#77bd7b" stroke="#77bd7b" points="164.948,-118.046 170.473,-108.573 165.473,-113.073 165.998,-108.101 165.998,-108.101 165.998,-108.101 165.473,-113.073 161.523,-107.629 164.948,-118.046 164.948,-118.046"/>
</g>
<!-- Request -->
<g id="node7" class="node"><title>Request</title>
<ellipse fill="none" stroke="black" cx="404.688" cy="-162" rx="38.6955" ry="18"/>
<text text-anchor="middle" x="404.688" y="-157.8" font-family="Times,serif" font-size="14.00">Request</text>
</g>
<!-- Group&#45;&gt;Request -->
<g id="edge1" class="edge"><title>Group&#45;&gt;Request</title>
<path fill="none" stroke="#4b5869" d="M278.341,-291.554C298.481,-282.411 323.756,-268.91 342.688,-252 362.964,-233.889 380.09,-207.899 391.169,-188.677"/>
<ellipse fill="none" stroke="#4b5869" cx="274.556" cy="-293.226" rx="4.00002" ry="4.00002"/>
<polygon fill="#4b5869" stroke="#4b5869" points="391.226,-188.575 400.037,-182.046 393.668,-184.212 396.11,-179.849 396.11,-179.849 396.11,-179.849 393.668,-184.212 392.183,-177.651 391.226,-188.575 391.226,-188.575"/>
</g>
<!-- User -->
<g id="node8" class="node"><title>User</title>
<ellipse fill="none" stroke="black" cx="306.688" cy="-234" rx="27" ry="18"/>
<text text-anchor="middle" x="306.688" y="-229.8" font-family="Times,serif" font-size="14.00">User</text>
</g>
<!-- Group&#45;&gt;User -->
<g id="edge2" class="edge"><title>Group&#45;&gt;User</title>
<path fill="none" stroke="#b795fb" d="M265.202,-281.839C272.017,-274.144 279.598,-265.585 286.396,-257.91"/>
<polygon fill="#b795fb" stroke="#b795fb" points="265.078,-281.979 255.079,-286.481 261.763,-285.722 258.448,-289.465 258.448,-289.465 258.448,-289.465 261.763,-285.722 261.816,-292.448 265.078,-281.979 265.078,-281.979"/>
<polygon fill="#b795fb" stroke="#b795fb" points="286.762,-257.497 296.761,-252.995 290.077,-253.754 293.392,-250.011 293.392,-250.011 293.392,-250.011 290.077,-253.754 290.023,-247.028 286.762,-257.497 286.762,-257.497"/>
</g>
<!-- Instrumentation -->
<g id="node4" class="node"><title>Instrumentation</title>
<ellipse fill="none" stroke="black" cx="243.688" cy="-162" rx="66.208" ry="18"/>
<text text-anchor="middle" x="243.688" y="-157.8" font-family="Times,serif" font-size="14.00">Instrumentation</text>
</g>
<!-- Instrumentation&#45;&gt;Group -->
<g id="edge7" class="edge"><title>Instrumentation&#45;&gt;Group</title>
<path fill="none" stroke="#899025" d="M243.867,-188.49C244.044,-213.629 244.314,-251.924 244.495,-277.679"/>
<ellipse fill="none" stroke="#899025" cx="243.837" cy="-184.189" rx="4" ry="4"/>
<polygon fill="#899025" stroke="#899025" points="244.497,-277.872 240.067,-287.903 244.532,-282.872 244.567,-287.871 244.567,-287.871 244.567,-287.871 244.532,-282.872 249.067,-287.84 244.497,-277.872 244.497,-277.872"/>
</g>
<!-- Interest -->
<g id="node5" class="node"><title>Interest</title>
<ellipse fill="none" stroke="black" cx="337.688" cy="-90" rx="36.7489" ry="18"/>
<text text-anchor="middle" x="337.688" y="-85.8" font-family="Times,serif" font-size="14.00">Interest</text>
</g>
<!-- Instrumentation&#45;&gt;Interest -->
<g id="edge8" class="edge"><title>Instrumentation&#45;&gt;Interest</title>
<path fill="none" stroke="#c3aa96" d="M272.106,-139.837C284.109,-130.899 298.039,-120.526 309.965,-111.644"/>
<ellipse fill="none" stroke="#c3aa96" cx="268.698" cy="-142.376" rx="4.00002" ry="4.00002"/>
<polygon fill="#c3aa96" stroke="#c3aa96" points="310.219,-111.456 320.927,-109.092 314.229,-108.469 318.239,-105.483 318.239,-105.483 318.239,-105.483 314.229,-108.469 315.552,-101.874 310.219,-111.456 310.219,-111.456"/>
</g>
<!-- Instrumentation&#45;&gt;Piece -->
<g id="edge9" class="edge"><title>Instrumentation&#45;&gt;Piece</title>
<path fill="none" stroke="#95796c" d="M220.034,-138.923C211.013,-130.504 200.75,-120.924 191.782,-112.555"/>
<ellipse fill="none" stroke="#95796c" cx="222.99" cy="-141.682" rx="4.00002" ry="4.00002"/>
<polygon fill="#95796c" stroke="#95796c" points="191.61,-112.394 187.369,-102.281 187.954,-108.982 184.299,-105.57 184.299,-105.57 184.299,-105.57 187.954,-108.982 181.229,-108.86 191.61,-112.394 191.61,-112.394"/>
</g>
<!-- Piece&#45;&gt;GroupPiece -->
<g id="edge12" class="edge"><title>Piece&#45;&gt;GroupPiece</title>
<path fill="none" stroke="#052c52" d="M168.688,-63.6398C168.688,-58.0629 168.688,-52.1319 168.688,-46.4761"/>
<ellipse fill="none" stroke="#052c52" cx="168.688" cy="-67.6966" rx="4" ry="4"/>
<polygon fill="#052c52" stroke="#052c52" points="168.688,-46.1043 173.188,-36.1043 168.688,-41.1043 168.688,-36.1043 168.688,-36.1043 168.688,-36.1043 168.688,-41.1043 164.188,-36.1044 168.688,-46.1043 168.688,-46.1043"/>
</g>
<!-- User&#45;&gt;Instrumentation -->
<g id="edge17" class="edge"><title>User&#45;&gt;Instrumentation</title>
<path fill="none" stroke="#b97136" d="M286.489,-210.557C279.888,-203.223 272.524,-195.041 265.791,-187.559"/>
<polygon fill="#b97136" stroke="#b97136" points="286.637,-210.722 289.982,-221.165 289.982,-214.438 293.327,-218.155 293.327,-218.155 293.327,-218.155 289.982,-214.438 296.672,-215.144 286.637,-210.722 286.637,-210.722"/>
<polygon fill="#b97136" stroke="#b97136" points="265.488,-187.222 262.143,-176.779 262.143,-183.505 258.798,-179.789 258.798,-179.789 258.798,-179.789 262.143,-183.505 255.453,-182.799 265.488,-187.222 265.488,-187.222"/>
</g>
<!-- User&#45;&gt;Interest -->
<g id="edge16" class="edge"><title>User&#45;&gt;Interest</title>
<path fill="none" stroke="#392fd7" d="M312.458,-207.811C314.454,-199.017 316.691,-189.077 318.688,-180 323.241,-159.299 328.24,-135.853 331.967,-118.224"/>
<ellipse fill="none" stroke="#392fd7" cx="311.521" cy="-211.926" rx="4.00001" ry="4.00001"/>
<polygon fill="#392fd7" stroke="#392fd7" points="332.043,-117.86 338.511,-109.004 333.076,-112.968 334.108,-108.075 334.108,-108.075 334.108,-108.075 333.076,-112.968 329.705,-107.146 332.043,-117.86 332.043,-117.86"/>
</g>
<!-- User&#45;&gt;Request -->
<g id="edge15" class="edge"><title>User&#45;&gt;Request</title>
<path fill="none" stroke="#c92599" d="M331.364,-215.374C344.952,-205.669 361.882,-193.575 376.05,-183.455"/>
<ellipse fill="none" stroke="#c92599" cx="327.917" cy="-217.836" rx="4.00002" ry="4.00002"/>
<polygon fill="#c92599" stroke="#c92599" points="376.323,-183.261 387.076,-181.11 380.391,-180.355 384.46,-177.448 384.46,-177.448 384.46,-177.448 380.391,-180.355 381.844,-173.787 376.323,-183.261 376.323,-183.261"/>
</g>
<!-- ActiveRecord::Base -->
<g id="node9" class="node"><title>ActiveRecord::Base</title>
<ellipse fill="none" stroke="black" cx="306.688" cy="-396.5" rx="81.1422" ry="18"/>
<text text-anchor="middle" x="306.688" y="-392.3" font-family="Times,serif" font-size="14.00">ActiveRecord::Base</text>
</g>
<!-- ActiveRecord::Base&#45;&gt;Group -->
<g id="edge5" class="edge"><title>ActiveRecord::Base&#45;&gt;Group</title>
<path fill="none" stroke="black" d="M294.734,-378.436C283.544,-362.464 266.948,-338.775 255.978,-323.117"/>
</g>
<!-- ActiveRecord::Base&#45;&gt;GroupPiece -->
<g id="edge6" class="edge"><title>ActiveRecord::Base&#45;&gt;GroupPiece</title>
<path fill="none" stroke="black" d="M353.26,-381.62C413.193,-360.544 509.688,-314.298 509.688,-235 509.688,-235 509.688,-235 509.688,-161 509.688,-92.4388 446.055,-100.477 383.688,-72 328.959,-47.0103 260.794,-32.7672 216.075,-25.4704"/>
</g>
<!-- ActiveRecord::Base&#45;&gt;Instrumentation -->
<g id="edge10" class="edge"><title>ActiveRecord::Base&#45;&gt;Instrumentation</title>
<path fill="none" stroke="black" d="M268.701,-380.482C245.045,-368.904 216.561,-350.373 202.688,-324 177.174,-275.498 212.117,-210.306 231.83,-179.915"/>
</g>
<!-- ActiveRecord::Base&#45;&gt;Interest -->
<g id="edge11" class="edge"><title>ActiveRecord::Base&#45;&gt;Interest</title>
<path fill="none" stroke="black" d="M323.686,-378.782C356.667,-344.962 428.246,-264.43 452.688,-180 457.137,-164.631 461.315,-157.475 452.688,-144 435.026,-116.414 398.967,-102.985 371.908,-96.5792"/>
</g>
<!-- ActiveRecord::Base&#45;&gt;Piece -->
<g id="edge13" class="edge"><title>ActiveRecord::Base&#45;&gt;Piece</title>
<path fill="none" stroke="black" d="M266.525,-380.796C240.66,-369.262 208.473,-350.66 189.688,-324 142.197,-256.602 156.819,-149.583 164.909,-108.159"/>
</g>
<!-- ActiveRecord::Base&#45;&gt;Request -->
<g id="edge14" class="edge"><title>ActiveRecord::Base&#45;&gt;Request</title>
<path fill="none" stroke="black" d="M314.886,-378.441C327.615,-351.727 352.65,-298.288 371.688,-252 381.905,-227.158 392.49,-197.869 398.832,-179.867"/>
</g>
<!-- ActiveRecord::Base&#45;&gt;User -->
<g id="edge18" class="edge"><title>ActiveRecord::Base&#45;&gt;User</title>
<path fill="none" stroke="black" d="M306.688,-378.324C306.688,-347.432 306.688,-282.855 306.688,-252.053"/>
</g>
</g>
</svg>
