<?xml version="1.0" encoding="UTF-8" standalone="no"?>
<!DOCTYPE svg PUBLIC "-//W3C//DTD SVG 1.1//EN"
 "http://www.w3.org/Graphics/SVG/1.1/DTD/svg11.dtd">
<!-- Generated by graphviz version 2.38.0 (20140413.2041)
 -->
<!-- Title: models_diagram Pages: 1 -->
<svg width="604pt" height="1018pt"
 viewBox="0.00 0.00 604.11 1018.00" xmlns="http://www.w3.org/2000/svg" xmlns:xlink="http://www.w3.org/1999/xlink">
<g id="graph0" class="graph" transform="scale(1 1) rotate(0) translate(4 1014)">
<title>models_diagram</title>
<polygon fill="white" stroke="none" points="-4,4 -4,-1014 600.113,-1014 600.113,4 -4,4"/>
<!-- _diagram_info -->
<g id="node1" class="node"><title>_diagram_info</title>
<text text-anchor="start" x="43.4256" y="-995.6" font-family="Times,serif" font-size="13.00">Models diagram</text>
<text text-anchor="start" x="43.4256" y="-982.6" font-family="Times,serif" font-size="13.00">Date: Aug 03 2014 &#45; 20:59</text>
<text text-anchor="start" x="43.4256" y="-969.6" font-family="Times,serif" font-size="13.00">Migration version: 20140804003346</text>
<text text-anchor="start" x="43.4256" y="-956.6" font-family="Times,serif" font-size="13.00">Generated by RailRoady 1.1.1</text>
<text text-anchor="start" x="43.4256" y="-943.6" font-family="Times,serif" font-size="13.00">http://railroady.prestonlee.com</text>
</g>
<!-- Group -->
<g id="node2" class="node"><title>Group</title>
<path fill="none" stroke="black" d="M158.101,-772.5C158.101,-772.5 302.126,-772.5 302.126,-772.5 308.126,-772.5 314.126,-778.5 314.126,-784.5 314.126,-784.5 314.126,-888.5 314.126,-888.5 314.126,-894.5 308.126,-900.5 302.126,-900.5 302.126,-900.5 158.101,-900.5 158.101,-900.5 152.101,-900.5 146.101,-894.5 146.101,-888.5 146.101,-888.5 146.101,-784.5 146.101,-784.5 146.101,-778.5 152.101,-772.5 158.101,-772.5"/>
<text text-anchor="middle" x="230.113" y="-885.3" font-family="Times,serif" font-size="14.00">Group</text>
<polyline fill="none" stroke="black" points="146.101,-878.5 314.126,-878.5 "/>
<text text-anchor="start" x="154.101" y="-863.3" font-family="Times,serif" font-size="14.00">id :integer</text>
<text text-anchor="start" x="154.101" y="-849.3" font-family="Times,serif" font-size="14.00">name :string</text>
<text text-anchor="start" x="154.101" y="-835.3" font-family="Times,serif" font-size="14.00">instrumentation_id :integer</text>
<text text-anchor="start" x="154.101" y="-821.3" font-family="Times,serif" font-size="14.00">complete :boolean</text>
<text text-anchor="start" x="154.101" y="-807.3" font-family="Times,serif" font-size="14.00">admin :integer</text>
<text text-anchor="start" x="154.101" y="-793.3" font-family="Times,serif" font-size="14.00">created_at :datetime</text>
<text text-anchor="start" x="154.101" y="-779.3" font-family="Times,serif" font-size="14.00">updated_at :datetime</text>
</g>
<!-- GroupPiece -->
<g id="node3" class="node"><title>GroupPiece</title>
<path fill="none" stroke="black" d="M171.608,-0.5C171.608,-0.5 280.619,-0.5 280.619,-0.5 286.619,-0.5 292.619,-6.5 292.619,-12.5 292.619,-12.5 292.619,-88.5 292.619,-88.5 292.619,-94.5 286.619,-100.5 280.619,-100.5 280.619,-100.5 171.608,-100.5 171.608,-100.5 165.608,-100.5 159.608,-94.5 159.608,-88.5 159.608,-88.5 159.608,-12.5 159.608,-12.5 159.608,-6.5 165.608,-0.5 171.608,-0.5"/>
<text text-anchor="middle" x="226.113" y="-85.3" font-family="Times,serif" font-size="14.00">GroupPiece</text>
<polyline fill="none" stroke="black" points="159.608,-78.5 292.619,-78.5 "/>
<text text-anchor="start" x="167.608" y="-63.3" font-family="Times,serif" font-size="14.00">id :integer</text>
<text text-anchor="start" x="167.608" y="-49.3" font-family="Times,serif" font-size="14.00">group_id :integer</text>
<text text-anchor="start" x="167.608" y="-35.3" font-family="Times,serif" font-size="14.00">piece_id :integer</text>
<text text-anchor="start" x="167.608" y="-21.3" font-family="Times,serif" font-size="14.00">created_at :datetime</text>
<text text-anchor="start" x="167.608" y="-7.3" font-family="Times,serif" font-size="14.00">updated_at :datetime</text>
</g>
<!-- Group&#45;&gt;GroupPiece -->
<g id="edge3" class="edge"><title>Group&#45;&gt;GroupPiece</title>
<path fill="none" stroke="#0dd763" d="M165.244,-765.557C159.187,-756.142 153.907,-746.197 150.113,-736 75.065,-534.264 136.892,-467.211 133.113,-252 132.216,-200.897 112.567,-183.799 133.113,-137 137.866,-126.174 144.741,-116.117 152.633,-106.984"/>
<ellipse fill="none" stroke="#0dd763" cx="167.551" cy="-768.993" rx="4.00002" ry="4.00002"/>
<polygon fill="#0dd763" stroke="#0dd763" points="152.713,-106.897 162.792,-102.578 156.095,-103.215 159.478,-99.5332 159.478,-99.5332 159.478,-99.5332 156.095,-103.215 156.164,-96.4889 152.713,-106.897 152.713,-106.897"/>
</g>
<!-- Piece -->
<g id="node6" class="node"><title>Piece</title>
<path fill="none" stroke="black" d="M154.101,-137.5C154.101,-137.5 298.126,-137.5 298.126,-137.5 304.126,-137.5 310.126,-143.5 310.126,-149.5 310.126,-149.5 310.126,-239.5 310.126,-239.5 310.126,-245.5 304.126,-251.5 298.126,-251.5 298.126,-251.5 154.101,-251.5 154.101,-251.5 148.101,-251.5 142.101,-245.5 142.101,-239.5 142.101,-239.5 142.101,-149.5 142.101,-149.5 142.101,-143.5 148.101,-137.5 154.101,-137.5"/>
<text text-anchor="middle" x="226.113" y="-236.3" font-family="Times,serif" font-size="14.00">Piece</text>
<polyline fill="none" stroke="black" points="142.101,-229.5 310.126,-229.5 "/>
<text text-anchor="start" x="150.101" y="-214.3" font-family="Times,serif" font-size="14.00">id :integer</text>
<text text-anchor="start" x="150.101" y="-200.3" font-family="Times,serif" font-size="14.00">name :string</text>
<text text-anchor="start" x="150.101" y="-186.3" font-family="Times,serif" font-size="14.00">level :integer</text>
<text text-anchor="start" x="150.101" y="-172.3" font-family="Times,serif" font-size="14.00">instrumentation_id :integer</text>
<text text-anchor="start" x="150.101" y="-158.3" font-family="Times,serif" font-size="14.00">created_at :datetime</text>
<text text-anchor="start" x="150.101" y="-144.3" font-family="Times,serif" font-size="14.00">updated_at :datetime</text>
</g>
<!-- Group&#45;&gt;Piece -->
<g id="edge4" class="edge"><title>Group&#45;&gt;Piece</title>
<path fill="none" stroke="#f60718" d="M205.35,-762.628C173.015,-656.389 125.599,-453.601 171.113,-288 173.649,-278.774 177.371,-269.538 181.704,-260.665"/>
<polygon fill="#f60718" stroke="#f60718" points="205.383,-762.736 204.031,-773.618 206.857,-767.514 208.331,-772.292 208.331,-772.292 208.331,-772.292 206.857,-767.514 212.631,-770.965 205.383,-762.736 205.383,-762.736"/>
<polygon fill="#f60718" stroke="#f60718" points="181.817,-260.445 190.411,-253.634 184.116,-256.005 186.415,-251.565 186.415,-251.565 186.415,-251.565 184.116,-256.005 182.419,-249.495 181.817,-260.445 181.817,-260.445"/>
</g>
<!-- Request -->
<g id="node7" class="node"><title>Request</title>
<path fill="none" stroke="black" d="M382.384,-288.5C382.384,-288.5 517.843,-288.5 517.843,-288.5 523.843,-288.5 529.843,-294.5 529.843,-300.5 529.843,-300.5 529.843,-432.5 529.843,-432.5 529.843,-438.5 523.843,-444.5 517.843,-444.5 517.843,-444.5 382.384,-444.5 382.384,-444.5 376.384,-444.5 370.384,-438.5 370.384,-432.5 370.384,-432.5 370.384,-300.5 370.384,-300.5 370.384,-294.5 376.384,-288.5 382.384,-288.5"/>
<text text-anchor="middle" x="450.113" y="-429.3" font-family="Times,serif" font-size="14.00">Request</text>
<polyline fill="none" stroke="black" points="370.384,-422.5 529.843,-422.5 "/>
<text text-anchor="start" x="378.384" y="-407.3" font-family="Times,serif" font-size="14.00">id :integer</text>
<text text-anchor="start" x="378.384" y="-393.3" font-family="Times,serif" font-size="14.00">user_id :integer</text>
<text text-anchor="start" x="378.384" y="-379.3" font-family="Times,serif" font-size="14.00">group_id :integer</text>
<text text-anchor="start" x="378.384" y="-365.3" font-family="Times,serif" font-size="14.00">user_approved :boolean</text>
<text text-anchor="start" x="378.384" y="-351.3" font-family="Times,serif" font-size="14.00">group_approved :boolean</text>
<text text-anchor="start" x="378.384" y="-337.3" font-family="Times,serif" font-size="14.00">finalized :boolean</text>
<text text-anchor="start" x="378.384" y="-323.3" font-family="Times,serif" font-size="14.00">part :string</text>
<text text-anchor="start" x="378.384" y="-309.3" font-family="Times,serif" font-size="14.00">created_at :datetime</text>
<text text-anchor="start" x="378.384" y="-295.3" font-family="Times,serif" font-size="14.00">updated_at :datetime</text>
</g>
<!-- Group&#45;&gt;Request -->
<g id="edge1" class="edge"><title>Group&#45;&gt;Request</title>
<path fill="none" stroke="#64053a" d="M321.608,-804.252C353.694,-788.713 386.77,-766.553 407.113,-736 436.82,-691.384 446.075,-549.024 448.915,-454.872"/>
<ellipse fill="none" stroke="#64053a" cx="317.97" cy="-805.963" rx="4.00002" ry="4.00002"/>
<polygon fill="#64053a" stroke="#64053a" points="448.917,-454.775 453.698,-444.906 449.059,-449.777 449.2,-444.779 449.2,-444.779 449.2,-444.779 449.059,-449.777 444.702,-444.652 448.917,-454.775 448.917,-454.775"/>
</g>
<!-- User -->
<g id="node8" class="node"><title>User</title>
<path fill="none" stroke="black" d="M270.484,-481.5C270.484,-481.5 385.743,-481.5 385.743,-481.5 391.743,-481.5 397.743,-487.5 397.743,-493.5 397.743,-493.5 397.743,-723.5 397.743,-723.5 397.743,-729.5 391.743,-735.5 385.743,-735.5 385.743,-735.5 270.484,-735.5 270.484,-735.5 264.484,-735.5 258.484,-729.5 258.484,-723.5 258.484,-723.5 258.484,-493.5 258.484,-493.5 258.484,-487.5 264.484,-481.5 270.484,-481.5"/>
<text text-anchor="middle" x="328.113" y="-720.3" font-family="Times,serif" font-size="14.00">User</text>
<polyline fill="none" stroke="black" points="258.484,-713.5 397.743,-713.5 "/>
<text text-anchor="start" x="266.484" y="-698.3" font-family="Times,serif" font-size="14.00">id :integer</text>
<text text-anchor="start" x="266.484" y="-684.3" font-family="Times,serif" font-size="14.00">first_name :string</text>
<text text-anchor="start" x="266.484" y="-670.3" font-family="Times,serif" font-size="14.00">last_name :string</text>
<text text-anchor="start" x="266.484" y="-656.3" font-family="Times,serif" font-size="14.00">instrument :string</text>
<text text-anchor="start" x="266.484" y="-642.3" font-family="Times,serif" font-size="14.00">gender :string</text>
<text text-anchor="start" x="266.484" y="-628.3" font-family="Times,serif" font-size="14.00">short_bio :text</text>
<text text-anchor="start" x="266.484" y="-614.3" font-family="Times,serif" font-size="14.00">image :string</text>
<text text-anchor="start" x="266.484" y="-600.3" font-family="Times,serif" font-size="14.00">email :string</text>
<text text-anchor="start" x="266.484" y="-586.3" font-family="Times,serif" font-size="14.00">zipcode :integer</text>
<text text-anchor="start" x="266.484" y="-572.3" font-family="Times,serif" font-size="14.00">phone_number :string</text>
<text text-anchor="start" x="266.484" y="-558.3" font-family="Times,serif" font-size="14.00">level :integer</text>
<text text-anchor="start" x="266.484" y="-544.3" font-family="Times,serif" font-size="14.00">video_sample :string</text>
<text text-anchor="start" x="266.484" y="-530.3" font-family="Times,serif" font-size="14.00">audio_sample :string</text>
<text text-anchor="start" x="266.484" y="-516.3" font-family="Times,serif" font-size="14.00">available :boolean</text>
<text text-anchor="start" x="266.484" y="-502.3" font-family="Times,serif" font-size="14.00">created_at :datetime</text>
<text text-anchor="start" x="266.484" y="-488.3" font-family="Times,serif" font-size="14.00">updated_at :datetime</text>
</g>
<!-- Group&#45;&gt;User -->
<g id="edge2" class="edge"><title>Group&#45;&gt;User</title>
<path fill="none" stroke="#d68a9e" d="M261.587,-762.919C264.074,-757.183 266.631,-751.287 269.226,-745.302"/>
<polygon fill="#d68a9e" stroke="#d68a9e" points="261.521,-763.071 253.414,-770.456 259.531,-767.659 257.542,-772.246 257.542,-772.246 257.542,-772.246 259.531,-767.659 261.671,-774.036 261.521,-763.071 261.521,-763.071"/>
<polygon fill="#d68a9e" stroke="#d68a9e" points="269.353,-745.008 277.46,-737.624 271.342,-740.421 273.332,-735.833 273.332,-735.833 273.332,-735.833 271.342,-740.421 269.203,-734.043 269.353,-745.008 269.353,-745.008"/>
</g>
<!-- Instrumentation -->
<g id="node4" class="node"><title>Instrumentation</title>
<path fill="none" stroke="black" d="M192.608,-323.5C192.608,-323.5 301.619,-323.5 301.619,-323.5 307.619,-323.5 313.619,-329.5 313.619,-335.5 313.619,-335.5 313.619,-397.5 313.619,-397.5 313.619,-403.5 307.619,-409.5 301.619,-409.5 301.619,-409.5 192.608,-409.5 192.608,-409.5 186.608,-409.5 180.608,-403.5 180.608,-397.5 180.608,-397.5 180.608,-335.5 180.608,-335.5 180.608,-329.5 186.608,-323.5 192.608,-323.5"/>
<text text-anchor="middle" x="247.113" y="-394.3" font-family="Times,serif" font-size="14.00">Instrumentation</text>
<polyline fill="none" stroke="black" points="180.608,-387.5 313.619,-387.5 "/>
<text text-anchor="start" x="188.608" y="-372.3" font-family="Times,serif" font-size="14.00">id :integer</text>
<text text-anchor="start" x="188.608" y="-358.3" font-family="Times,serif" font-size="14.00">name :string</text>
<text text-anchor="start" x="188.608" y="-344.3" font-family="Times,serif" font-size="14.00">created_at :datetime</text>
<text text-anchor="start" x="188.608" y="-330.3" font-family="Times,serif" font-size="14.00">updated_at :datetime</text>
</g>
<!-- Instrumentation&#45;&gt;Group -->
<g id="edge7" class="edge"><title>Instrumentation&#45;&gt;Group</title>
<path fill="none" stroke="#f1ca76" d="M245.286,-417.808C242.276,-500.669 236.263,-666.21 232.778,-762.137"/>
<ellipse fill="none" stroke="#f1ca76" cx="245.44" cy="-413.567" rx="4" ry="4"/>
<polygon fill="#f1ca76" stroke="#f1ca76" points="232.769,-762.39 227.909,-772.22 232.588,-767.387 232.406,-772.383 232.406,-772.383 232.406,-772.383 232.588,-767.387 236.903,-772.547 232.769,-762.39 232.769,-762.39"/>
</g>
<!-- Interest -->
<g id="node5" class="node"><title>Interest</title>
<path fill="none" stroke="black" d="M340.101,-144.5C340.101,-144.5 484.126,-144.5 484.126,-144.5 490.126,-144.5 496.126,-150.5 496.126,-156.5 496.126,-156.5 496.126,-232.5 496.126,-232.5 496.126,-238.5 490.126,-244.5 484.126,-244.5 484.126,-244.5 340.101,-244.5 340.101,-244.5 334.101,-244.5 328.101,-238.5 328.101,-232.5 328.101,-232.5 328.101,-156.5 328.101,-156.5 328.101,-150.5 334.101,-144.5 340.101,-144.5"/>
<text text-anchor="middle" x="412.113" y="-229.3" font-family="Times,serif" font-size="14.00">Interest</text>
<polyline fill="none" stroke="black" points="328.101,-222.5 496.126,-222.5 "/>
<text text-anchor="start" x="336.101" y="-207.3" font-family="Times,serif" font-size="14.00">id :integer</text>
<text text-anchor="start" x="336.101" y="-193.3" font-family="Times,serif" font-size="14.00">user_id :integer</text>
<text text-anchor="start" x="336.101" y="-179.3" font-family="Times,serif" font-size="14.00">instrumentation_id :integer</text>
<text text-anchor="start" x="336.101" y="-165.3" font-family="Times,serif" font-size="14.00">created_at :datetime</text>
<text text-anchor="start" x="336.101" y="-151.3" font-family="Times,serif" font-size="14.00">updated_at :datetime</text>
</g>
<!-- Instrumentation&#45;&gt;Interest -->
<g id="edge8" class="edge"><title>Instrumentation&#45;&gt;Interest</title>
<path fill="none" stroke="#430693" d="M293.721,-317.48C313.508,-297.094 336.715,-273.183 357.316,-251.958"/>
<ellipse fill="none" stroke="#430693" cx="290.686" cy="-320.607" rx="4.00002" ry="4.00002"/>
<polygon fill="#430693" stroke="#430693" points="357.519,-251.749 367.713,-247.707 361.001,-248.161 364.484,-244.573 364.484,-244.573 364.484,-244.573 361.001,-248.161 361.255,-241.439 357.519,-251.749 357.519,-251.749"/>
</g>
<!-- Instrumentation&#45;&gt;Piece -->
<g id="edge9" class="edge"><title>Instrumentation&#45;&gt;Piece</title>
<path fill="none" stroke="#9bc787" d="M240.926,-315.412C238.863,-298.713 236.531,-279.837 234.339,-262.086"/>
<ellipse fill="none" stroke="#9bc787" cx="241.432" cy="-319.508" rx="4.00001" ry="4.00001"/>
<polygon fill="#9bc787" stroke="#9bc787" points="234.293,-261.715 237.533,-251.239 233.68,-256.753 233.067,-251.79 233.067,-251.79 233.067,-251.79 233.68,-256.753 228.601,-252.342 234.293,-261.715 234.293,-261.715"/>
</g>
<!-- Piece&#45;&gt;GroupPiece -->
<g id="edge12" class="edge"><title>Piece&#45;&gt;GroupPiece</title>
<path fill="none" stroke="#641286" d="M226.113,-129.371C226.113,-123.222 226.113,-117.003 226.113,-110.902"/>
<ellipse fill="none" stroke="#641286" cx="226.113" cy="-133.378" rx="4" ry="4"/>
<polygon fill="#641286" stroke="#641286" points="226.113,-110.779 230.613,-100.779 226.113,-105.779 226.113,-100.779 226.113,-100.779 226.113,-100.779 226.113,-105.779 221.613,-100.779 226.113,-110.779 226.113,-110.779"/>
</g>
<!-- User&#45;&gt;Instrumentation -->
<g id="edge17" class="edge"><title>User&#45;&gt;Instrumentation</title>
<path fill="none" stroke="#5bdb43" d="M282.215,-471.505C275.933,-452.892 269.828,-434.801 264.518,-419.068"/>
<polygon fill="#5bdb43" stroke="#5bdb43" points="282.281,-471.7 281.215,-482.614 283.88,-476.437 285.479,-481.174 285.479,-481.174 285.479,-481.174 283.88,-476.437 289.742,-479.735 282.281,-471.7 282.281,-471.7"/>
<polygon fill="#5bdb43" stroke="#5bdb43" points="264.518,-419.068 265.584,-408.154 262.919,-414.331 261.32,-409.593 261.32,-409.593 261.32,-409.593 262.919,-414.331 257.056,-411.032 264.518,-419.068 264.518,-419.068"/>
</g>
<!-- User&#45;&gt;Interest -->
<g id="edge16" class="edge"><title>User&#45;&gt;Interest</title>
<path fill="none" stroke="#1b348b" d="M330.08,-473.008C333.956,-415.017 342.616,-347.086 361.113,-288 364.709,-276.515 369.812,-264.84 375.415,-253.827"/>
<ellipse fill="none" stroke="#1b348b" cx="329.818" cy="-477.131" rx="4" ry="4"/>
<polygon fill="#1b348b" stroke="#1b348b" points="375.54,-253.59 384.193,-246.854 377.878,-249.17 380.215,-244.75 380.215,-244.75 380.215,-244.75 377.878,-249.17 376.238,-242.646 375.54,-253.59 375.54,-253.59"/>
</g>
<!-- User&#45;&gt;Request -->
<g id="edge15" class="edge"><title>User&#45;&gt;Request</title>
<path fill="none" stroke="#ace747" d="M396.021,-473.91C399.499,-467.069 402.946,-460.287 406.317,-453.656"/>
<ellipse fill="none" stroke="#ace747" cx="394.141" cy="-477.609" rx="4.00002" ry="4.00002"/>
<polygon fill="#ace747" stroke="#ace747" points="406.331,-453.629 414.874,-446.754 408.597,-449.172 410.863,-444.715 410.863,-444.715 410.863,-444.715 408.597,-449.172 406.851,-442.675 406.331,-453.629 406.331,-453.629"/>
</g>
<!-- ActiveRecord::Base -->
<g id="node9" class="node"><title>ActiveRecord::Base</title>
<ellipse fill="none" stroke="black" cx="342.113" cy="-973.5" rx="81.1422" ry="18"/>
<text text-anchor="middle" x="342.113" y="-969.3" font-family="Times,serif" font-size="14.00">ActiveRecord::Base</text>
</g>
<!-- ActiveRecord::Base&#45;&gt;Group -->
<g id="edge5" class="edge"><title>ActiveRecord::Base&#45;&gt;Group</title>
<path fill="none" stroke="black" d="M328.155,-955.675C316.544,-941.68 299.251,-920.836 282.408,-900.533"/>
</g>
<!-- ActiveRecord::Base&#45;&gt;GroupPiece -->
<g id="edge6" class="edge"><title>ActiveRecord::Base&#45;&gt;GroupPiece</title>
<path fill="none" stroke="black" d="M375.669,-957.056C399.687,-944.654 431.472,-925.314 453.113,-901 549.056,-793.209 596.113,-753.805 596.113,-609.5 596.113,-609.5 596.113,-609.5 596.113,-365.5 596.113,-256.187 585.499,-211.077 505.113,-137 446.624,-83.1001 354.94,-63.1541 292.775,-55.7879"/>
</g>
<!-- ActiveRecord::Base&#45;&gt;Instrumentation -->
<g id="edge10" class="edge"><title>ActiveRecord::Base&#45;&gt;Instrumentation</title>
<path fill="none" stroke="black" d="M305.557,-957.387C289.295,-950.844 269.852,-943.266 252.113,-937 201.614,-919.162 168.826,-944.158 137.113,-901 24.5568,-747.822 156.561,-506.294 218.477,-409.583"/>
</g>
<!-- ActiveRecord::Base&#45;&gt;Interest -->
<g id="edge11" class="edge"><title>ActiveRecord::Base&#45;&gt;Interest</title>
<path fill="none" stroke="black" d="M366.017,-956.072C383.217,-943.045 405.667,-923.355 419.113,-901 436.266,-872.483 525.847,-548.295 539.113,-445 548.002,-375.791 570.755,-350.191 539.113,-288 529.342,-268.794 513.507,-252.633 496.281,-239.467"/>
</g>
<!-- ActiveRecord::Base&#45;&gt;Piece -->
<g id="edge13" class="edge"><title>ActiveRecord::Base&#45;&gt;Piece</title>
<path fill="none" stroke="black" d="M307.087,-957.214C290.616,-950.408 270.579,-942.669 252.113,-937 182.019,-915.483 136.956,-958.225 91.1134,-901 -79.9836,-687.42 19.5808,-529.064 149.113,-288 155.839,-275.484 164.424,-263.091 173.407,-251.638"/>
</g>
<!-- ActiveRecord::Base&#45;&gt;Request -->
<g id="edge14" class="edge"><title>ActiveRecord::Base&#45;&gt;Request</title>
<path fill="none" stroke="black" d="M351.9,-955.43C373.052,-917.483 422.611,-822.624 441.113,-736 462.234,-637.119 460.712,-519.925 456.452,-444.689"/>
</g>
<!-- ActiveRecord::Base&#45;&gt;User -->
<g id="edge18" class="edge"><title>ActiveRecord::Base&#45;&gt;User</title>
<path fill="none" stroke="black" d="M341.457,-955.479C339.954,-916.512 336.149,-817.861 332.986,-735.827"/>
</g>
</g>
</svg>
