<?xml version="1.0" encoding="UTF-8" standalone="no"?>
<!DOCTYPE svg PUBLIC "-//W3C//DTD SVG 1.1//EN"
 "http://www.w3.org/Graphics/SVG/1.1/DTD/svg11.dtd">
<!-- Generated by graphviz version 2.38.0 (20140413.2041)
 -->
<!-- Title: models_diagram Pages: 1 -->
<svg width="637pt" height="513pt"
 viewBox="0.00 0.00 636.69 513.00" xmlns="http://www.w3.org/2000/svg" xmlns:xlink="http://www.w3.org/1999/xlink">
<g id="graph0" class="graph" transform="scale(1 1) rotate(0) translate(4 509)">
<title>models_diagram</title>
<polygon fill="white" stroke="none" points="-4,4 -4,-509 632.688,-509 632.688,4 -4,4"/>
<!-- _diagram_info -->
<g id="node1" class="node"><title>_diagram_info</title>
<text text-anchor="start" x="8" y="-490.6" font-family="Times,serif" font-size="13.00">Models diagram</text>
<text text-anchor="start" x="8" y="-477.6" font-family="Times,serif" font-size="13.00">Date: Aug 11 2014 &#45; 13:36</text>
<text text-anchor="start" x="8" y="-464.6" font-family="Times,serif" font-size="13.00">Migration version: 20140807012019</text>
<text text-anchor="start" x="8" y="-451.6" font-family="Times,serif" font-size="13.00">Generated by RailRoady 1.1.1</text>
<text text-anchor="start" x="8" y="-438.6" font-family="Times,serif" font-size="13.00">http://railroady.prestonlee.com</text>
</g>
<!-- Group -->
<g id="node2" class="node"><title>Group</title>
<ellipse fill="none" stroke="black" cx="383.688" cy="-378" rx="32.9081" ry="18"/>
<text text-anchor="middle" x="383.688" y="-373.8" font-family="Times,serif" font-size="14.00">Group</text>
</g>
<!-- GroupPiece -->
<g id="node3" class="node"><title>GroupPiece</title>
<ellipse fill="none" stroke="black" cx="514.688" cy="-18" rx="51.7088" ry="18"/>
<text text-anchor="middle" x="514.688" y="-13.8" font-family="Times,serif" font-size="14.00">GroupPiece</text>
</g>
<!-- Group&#45;&gt;GroupPiece -->
<g id="edge3" class="edge"><title>Group&#45;&gt;GroupPiece</title>
<path fill="none" stroke="#b9061c" d="M422.346,-368.965C482.252,-353.996 590.688,-315.748 590.688,-235 590.688,-235 590.688,-235 590.688,-161 590.688,-115.134 559.485,-69.7461 537.066,-43.054"/>
<ellipse fill="none" stroke="#b9061c" cx="418.12" cy="-369.985" rx="4.00001" ry="4.00001"/>
<polygon fill="#b9061c" stroke="#b9061c" points="536.979,-42.9526 533.838,-32.4461 533.707,-39.1716 530.435,-35.3907 530.435,-35.3907 530.435,-35.3907 533.707,-39.1716 527.032,-38.3353 536.979,-42.9526 536.979,-42.9526"/>
</g>
<!-- Instrument -->
<g id="node4" class="node"><title>Instrument</title>
<ellipse fill="none" stroke="black" cx="230.688" cy="-306" rx="48.3427" ry="18"/>
<text text-anchor="middle" x="230.688" y="-301.8" font-family="Times,serif" font-size="14.00">Instrument</text>
</g>
<!-- Group&#45;&gt;Instrument -->
<g id="edge5" class="edge"><title>Group&#45;&gt;Instrument</title>
<path fill="none" stroke="#f6ecd6" d="M350.042,-361.607C326.178,-350.688 294.098,-336.011 269.208,-324.623"/>
<polygon fill="#f6ecd6" stroke="#f6ecd6" points="350.351,-361.748 357.572,-370 354.898,-363.828 359.444,-365.908 359.444,-365.908 359.444,-365.908 354.898,-363.828 361.317,-361.816 350.351,-361.748 350.351,-361.748"/>
<polygon fill="#f6ecd6" stroke="#f6ecd6" points="269.145,-324.595 261.924,-316.343 264.599,-322.515 260.052,-320.435 260.052,-320.435 260.052,-320.435 264.599,-322.515 258.18,-324.527 269.145,-324.595 269.145,-324.595"/>
</g>
<!-- Piece -->
<g id="node8" class="node"><title>Piece</title>
<ellipse fill="none" stroke="black" cx="514.688" cy="-90" rx="29.0172" ry="18"/>
<text text-anchor="middle" x="514.688" y="-85.8" font-family="Times,serif" font-size="14.00">Piece</text>
</g>
<!-- Group&#45;&gt;Piece -->
<g id="edge4" class="edge"><title>Group&#45;&gt;Piece</title>
<path fill="none" stroke="#ce17bc" d="M401.105,-352.665C425.99,-316.699 471.391,-246.42 495.688,-180 503.049,-159.877 507.943,-136.096 510.918,-118.182"/>
<polygon fill="#ce17bc" stroke="#ce17bc" points="400.975,-352.851 391.557,-358.469 398.11,-356.949 395.245,-361.047 395.245,-361.047 395.245,-361.047 398.11,-356.949 398.934,-363.625 400.975,-352.851 400.975,-352.851"/>
<polygon fill="#ce17bc" stroke="#ce17bc" points="510.945,-118.007 516.936,-108.822 511.718,-113.067 512.49,-108.127 512.49,-108.127 512.49,-108.127 511.718,-113.067 508.044,-107.432 510.945,-118.007 510.945,-118.007"/>
</g>
<!-- Request -->
<g id="node9" class="node"><title>Request</title>
<ellipse fill="none" stroke="black" cx="447.688" cy="-162" rx="38.6955" ry="18"/>
<text text-anchor="middle" x="447.688" y="-157.8" font-family="Times,serif" font-size="14.00">Request</text>
</g>
<!-- Group&#45;&gt;Request -->
<g id="edge1" class="edge"><title>Group&#45;&gt;Request</title>
<path fill="none" stroke="#7fa3cf" d="M391.068,-352.323C403.179,-311.825 427.175,-231.59 439.682,-189.768"/>
<ellipse fill="none" stroke="#7fa3cf" cx="389.856" cy="-356.375" rx="4.00001" ry="4.00001"/>
<polygon fill="#7fa3cf" stroke="#7fa3cf" points="439.735,-189.591 446.912,-181.3 441.168,-184.801 442.601,-180.01 442.601,-180.01 442.601,-180.01 441.168,-184.801 438.289,-178.721 439.735,-189.591 439.735,-189.591"/>
</g>
<!-- User -->
<g id="node10" class="node"><title>User</title>
<ellipse fill="none" stroke="black" cx="324.688" cy="-234" rx="27" ry="18"/>
<text text-anchor="middle" x="324.688" y="-229.8" font-family="Times,serif" font-size="14.00">User</text>
</g>
<!-- Group&#45;&gt;User -->
<g id="edge2" class="edge"><title>Group&#45;&gt;User</title>
<path fill="none" stroke="#655697" d="M368.002,-351.977C355.557,-326.619 339.278,-287.532 330.342,-261.617"/>
<polygon fill="#655697" stroke="#655697" points="368.048,-352.068 368.558,-363.022 370.31,-356.527 372.571,-360.987 372.571,-360.987 372.571,-360.987 370.31,-356.527 376.584,-358.952 368.048,-352.068 368.048,-352.068"/>
<polygon fill="#655697" stroke="#655697" points="330.322,-261.555 331.472,-250.65 328.76,-256.805 327.197,-252.056 327.197,-252.056 327.197,-252.056 328.76,-256.805 322.923,-253.462 330.322,-261.555 330.322,-261.555"/>
</g>
<!-- InstrumentInstrumentation -->
<g id="node5" class="node"><title>InstrumentInstrumentation</title>
<ellipse fill="none" stroke="black" cx="179.688" cy="-90" rx="104.337" ry="18"/>
<text text-anchor="middle" x="179.688" y="-85.8" font-family="Times,serif" font-size="14.00">InstrumentInstrumentation</text>
</g>
<!-- Instrument&#45;&gt;InstrumentInstrumentation -->
<g id="edge8" class="edge"><title>Instrument&#45;&gt;InstrumentInstrumentation</title>
<path fill="none" stroke="#fb5a0f" d="M224.717,-279.945C215.053,-239.397 196.068,-159.735 186.118,-117.983"/>
<ellipse fill="none" stroke="#fb5a0f" cx="225.673" cy="-283.958" rx="4.00001" ry="4.00001"/>
<polygon fill="#fb5a0f" stroke="#fb5a0f" points="186.113,-117.96 188.172,-107.189 184.954,-113.096 183.795,-108.232 183.795,-108.232 183.795,-108.232 184.954,-113.096 179.417,-109.276 186.113,-117.96 186.113,-117.96"/>
</g>
<!-- Instrumentation -->
<g id="node6" class="node"><title>Instrumentation</title>
<ellipse fill="none" stroke="black" cx="324.688" cy="-162" rx="66.208" ry="18"/>
<text text-anchor="middle" x="324.688" y="-157.8" font-family="Times,serif" font-size="14.00">Instrumentation</text>
</g>
<!-- Instrument&#45;&gt;Instrumentation -->
<g id="edge9" class="edge"><title>Instrument&#45;&gt;Instrumentation</title>
<path fill="none" stroke="#f1af7f" d="M247.109,-279.521C258.652,-261.679 274.507,-237.313 288.688,-216 294.696,-206.971 301.349,-197.132 307.285,-188.409"/>
<polygon fill="#f1af7f" stroke="#f1af7f" points="246.924,-279.807 237.717,-285.764 244.21,-284.007 241.496,-288.206 241.496,-288.206 241.496,-288.206 244.21,-284.007 245.276,-290.648 246.924,-279.807 246.924,-279.807"/>
<polygon fill="#f1af7f" stroke="#f1af7f" points="307.297,-188.391 316.649,-182.665 310.114,-184.261 312.931,-180.13 312.931,-180.13 312.931,-180.13 310.114,-184.261 309.213,-177.594 307.297,-188.391 307.297,-188.391"/>
</g>
<!-- Instrument&#45;&gt;User -->
<g id="edge10" class="edge"><title>Instrument&#45;&gt;User</title>
<path fill="none" stroke="#7c9953" d="M258.115,-284.576C271.036,-274.953 286.361,-263.542 299.047,-254.094"/>
<ellipse fill="none" stroke="#7c9953" cx="254.758" cy="-287.076" rx="4.00002" ry="4.00002"/>
<polygon fill="#7c9953" stroke="#7c9953" points="299.327,-253.886 310.035,-251.522 303.337,-250.899 307.347,-247.913 307.347,-247.913 307.347,-247.913 303.337,-250.899 304.66,-244.304 299.327,-253.886 299.327,-253.886"/>
</g>
<!-- Instrumentation&#45;&gt;Group -->
<g id="edge13" class="edge"><title>Instrumentation&#45;&gt;Group</title>
<path fill="none" stroke="#21f428" d="M343.213,-186.155C349.561,-195.054 356.19,-205.584 360.688,-216 379.696,-260.016 383.607,-316.475 384.086,-349.504"/>
<ellipse fill="none" stroke="#21f428" cx="340.827" cy="-182.917" rx="4.00002" ry="4.00002"/>
<polygon fill="#21f428" stroke="#21f428" points="384.087,-349.756 379.634,-359.777 384.11,-354.756 384.134,-359.756 384.134,-359.756 384.134,-359.756 384.11,-354.756 388.634,-359.735 384.087,-349.756 384.087,-349.756"/>
</g>
<!-- Instrumentation&#45;&gt;InstrumentInstrumentation -->
<g id="edge16" class="edge"><title>Instrumentation&#45;&gt;InstrumentInstrumentation</title>
<path fill="none" stroke="#f121c2" d="M286.099,-142.371C266.353,-132.839 242.276,-121.215 222.022,-111.437"/>
<ellipse fill="none" stroke="#f121c2" cx="289.979" cy="-144.244" rx="4.00002" ry="4.00002"/>
<polygon fill="#f121c2" stroke="#f121c2" points="222.02,-111.436 214.97,-103.036 217.517,-109.262 213.014,-107.089 213.014,-107.089 213.014,-107.089 217.517,-109.262 211.058,-111.141 222.02,-111.436 222.02,-111.436"/>
</g>
<!-- Interest -->
<g id="node7" class="node"><title>Interest</title>
<ellipse fill="none" stroke="black" cx="338.688" cy="-90" rx="36.7489" ry="18"/>
<text text-anchor="middle" x="338.688" y="-85.8" font-family="Times,serif" font-size="14.00">Interest</text>
</g>
<!-- Instrumentation&#45;&gt;Interest -->
<g id="edge14" class="edge"><title>Instrumentation&#45;&gt;Interest</title>
<path fill="none" stroke="#48d955" d="M329.76,-135.64C330.904,-129.92 332.122,-123.828 333.279,-118.042"/>
<ellipse fill="none" stroke="#48d955" cx="328.933" cy="-139.774" rx="4.00001" ry="4.00001"/>
<polygon fill="#48d955" stroke="#48d955" points="333.306,-117.91 339.679,-108.987 334.286,-113.007 335.267,-108.104 335.267,-108.104 335.267,-108.104 334.286,-113.007 330.854,-107.222 333.306,-117.91 333.306,-117.91"/>
</g>
<!-- Instrumentation&#45;&gt;Piece -->
<g id="edge15" class="edge"><title>Instrumentation&#45;&gt;Piece</title>
<path fill="none" stroke="#31f323" d="M370.034,-144.293C404.04,-131.765 449.853,-114.887 480.735,-103.509"/>
<ellipse fill="none" stroke="#31f323" cx="365.979" cy="-145.787" rx="4.00001" ry="4.00001"/>
<polygon fill="#31f323" stroke="#31f323" points="480.819,-103.478 491.758,-104.243 485.511,-101.749 490.203,-100.021 490.203,-100.021 490.203,-100.021 485.511,-101.749 488.647,-95.7983 480.819,-103.478 480.819,-103.478"/>
</g>
<!-- Piece&#45;&gt;GroupPiece -->
<g id="edge19" class="edge"><title>Piece&#45;&gt;GroupPiece</title>
<path fill="none" stroke="#751ba3" d="M514.688,-63.6398C514.688,-58.0629 514.688,-52.1319 514.688,-46.4761"/>
<ellipse fill="none" stroke="#751ba3" cx="514.688" cy="-67.6966" rx="4" ry="4"/>
<polygon fill="#751ba3" stroke="#751ba3" points="514.688,-46.1043 519.188,-36.1043 514.688,-41.1043 514.688,-36.1043 514.688,-36.1043 514.688,-36.1043 514.688,-41.1043 510.188,-36.1044 514.688,-46.1043 514.688,-46.1043"/>
</g>
<!-- User&#45;&gt;Group -->
<g id="edge23" class="edge"><title>User&#45;&gt;Group</title>
<path fill="none" stroke="#5c85c3" d="M339.472,-258.198C352.005,-283.437 368.833,-323.724 377.995,-350.271"/>
<ellipse fill="none" stroke="#5c85c3" cx="337.554" cy="-254.442" rx="4.00002" ry="4.00002"/>
<polygon fill="#5c85c3" stroke="#5c85c3" points="378.028,-350.373 376.881,-361.279 379.592,-355.122 381.155,-359.871 381.155,-359.871 381.155,-359.871 379.592,-355.122 385.43,-358.464 378.028,-350.373 378.028,-350.373"/>
</g>
<!-- User&#45;&gt;Instrumentation -->
<g id="edge25" class="edge"><title>User&#45;&gt;Instrumentation</title>
<path fill="none" stroke="#affb28" d="M324.688,-205.665C324.688,-200.687 324.688,-195.491 324.688,-190.507"/>
<polygon fill="#affb28" stroke="#affb28" points="324.688,-205.697 320.188,-215.697 324.688,-210.697 324.688,-215.697 324.688,-215.697 324.688,-215.697 324.688,-210.697 329.188,-215.697 324.688,-205.697 324.688,-205.697"/>
<polygon fill="#affb28" stroke="#affb28" points="324.688,-190.104 329.188,-180.104 324.688,-185.104 324.688,-180.104 324.688,-180.104 324.688,-180.104 324.688,-185.104 320.188,-180.104 324.688,-190.104 324.688,-190.104"/>
</g>
<!-- User&#45;&gt;Interest -->
<g id="edge24" class="edge"><title>User&#45;&gt;Interest</title>
<path fill="none" stroke="#2c2be0" d="M294.691,-220.338C278.178,-211.623 259.161,-198.294 249.688,-180 242.33,-165.792 241.782,-157.91 249.688,-144 255.83,-133.193 281.295,-118.601 303.42,-107.464"/>
<ellipse fill="none" stroke="#2c2be0" cx="298.48" cy="-222.231" rx="4.00002" ry="4.00002"/>
<polygon fill="#2c2be0" stroke="#2c2be0" points="303.662,-107.345 314.622,-106.96 308.147,-105.135 312.632,-102.924 312.632,-102.924 312.632,-102.924 308.147,-105.135 310.643,-98.8877 303.662,-107.345 303.662,-107.345"/>
</g>
<!-- User&#45;&gt;Request -->
<g id="edge22" class="edge"><title>User&#45;&gt;Request</title>
<path fill="none" stroke="#f561f0" d="M351.691,-217.632C370.307,-207.038 395.158,-192.895 414.91,-181.654"/>
<ellipse fill="none" stroke="#f561f0" cx="348.2" cy="-219.619" rx="4.00002" ry="4.00002"/>
<polygon fill="#f561f0" stroke="#f561f0" points="415.175,-181.503 426.092,-180.468 419.521,-179.03 423.866,-176.557 423.866,-176.557 423.866,-176.557 419.521,-179.03 421.64,-172.646 415.175,-181.503 415.175,-181.503"/>
</g>
<!-- ActiveRecord::Base -->
<g id="node11" class="node"><title>ActiveRecord::Base</title>
<ellipse fill="none" stroke="black" cx="306.688" cy="-468.5" rx="81.1422" ry="18"/>
<text text-anchor="middle" x="306.688" y="-464.3" font-family="Times,serif" font-size="14.00">ActiveRecord::Base</text>
</g>
<!-- ActiveRecord::Base&#45;&gt;Group -->
<g id="edge6" class="edge"><title>ActiveRecord::Base&#45;&gt;Group</title>
<path fill="none" stroke="black" d="M321.534,-450.436C335.606,-434.263 356.561,-410.178 370.176,-394.529"/>
</g>
<!-- ActiveRecord::Base&#45;&gt;GroupPiece -->
<g id="edge7" class="edge"><title>ActiveRecord::Base&#45;&gt;GroupPiece</title>
<path fill="none" stroke="black" d="M268.68,-452.387C217.583,-432.035 132.729,-398.103 129.688,-396 85.4528,-365.404 47.6877,-360.785 47.6877,-307 47.6877,-307 47.6877,-307 47.6877,-161 47.6877,-120.553 36.7948,-99.2464 66.6877,-72 95.6296,-45.6205 352.787,-28.1103 463.909,-21.7119"/>
</g>
<!-- ActiveRecord::Base&#45;&gt;Instrument -->
<g id="edge11" class="edge"><title>ActiveRecord::Base&#45;&gt;Instrument</title>
<path fill="none" stroke="black" d="M298.554,-450.324C283.927,-419.432 253.348,-354.855 238.763,-324.053"/>
</g>
<!-- ActiveRecord::Base&#45;&gt;InstrumentInstrumentation -->
<g id="edge12" class="edge"><title>ActiveRecord::Base&#45;&gt;InstrumentInstrumentation</title>
<path fill="none" stroke="black" d="M264.048,-453.101C208.03,-431.165 116.688,-383.645 116.688,-307 116.688,-307 116.688,-307 116.688,-233 116.688,-184.454 147.834,-133.973 166.327,-108.279"/>
</g>
<!-- ActiveRecord::Base&#45;&gt;Instrumentation -->
<g id="edge17" class="edge"><title>ActiveRecord::Base&#45;&gt;Instrumentation</title>
<path fill="none" stroke="black" d="M351.171,-453.414C377.925,-442.382 409.784,-424.11 425.688,-396 452.704,-348.25 426.93,-291.932 379.688,-216 370.861,-201.813 357.4,-188.753 346.004,-179.146"/>
</g>
<!-- ActiveRecord::Base&#45;&gt;Interest -->
<g id="edge18" class="edge"><title>ActiveRecord::Base&#45;&gt;Interest</title>
<path fill="none" stroke="black" d="M274.824,-451.929C230.252,-427.649 154.688,-376.271 154.688,-307 154.688,-307 154.688,-307 154.688,-233 154.688,-177.995 196.871,-177.251 240.688,-144 263.03,-127.045 291.502,-112.294 311.993,-102.689"/>
</g>
<!-- ActiveRecord::Base&#45;&gt;Piece -->
<g id="edge20" class="edge"><title>ActiveRecord::Base&#45;&gt;Piece</title>
<path fill="none" stroke="black" d="M383.406,-462.246C478.647,-451.074 628.688,-416.153 628.688,-307 628.688,-307 628.688,-307 628.688,-233 628.688,-173.723 567.533,-125.103 534.806,-103.328"/>
</g>
<!-- ActiveRecord::Base&#45;&gt;Request -->
<g id="edge21" class="edge"><title>ActiveRecord::Base&#45;&gt;Request</title>
<path fill="none" stroke="black" d="M359.291,-454.761C389.88,-444.375 425.985,-426.312 444.688,-396 487.81,-326.109 464.429,-220.551 452.9,-179.838"/>
</g>
<!-- ActiveRecord::Base&#45;&gt;User -->
<g id="edge26" class="edge"><title>ActiveRecord::Base&#45;&gt;User</title>
<path fill="none" stroke="black" d="M308.011,-450.404C311.34,-407.407 320.031,-295.145 323.362,-252.121"/>
</g>
</g>
</svg>
