<?xml version="1.0" encoding="UTF-8" standalone="no"?>
<!DOCTYPE svg PUBLIC "-//W3C//DTD SVG 1.1//EN"
 "http://www.w3.org/Graphics/SVG/1.1/DTD/svg11.dtd">
<!-- Generated by graphviz version 2.38.0 (20140413.2041)
 -->
<!-- Title: models_diagram Pages: 1 -->
<svg width="691pt" height="1281pt"
 viewBox="0.00 0.00 690.97 1281.00" xmlns="http://www.w3.org/2000/svg" xmlns:xlink="http://www.w3.org/1999/xlink">
<g id="graph0" class="graph" transform="scale(1 1) rotate(0) translate(4 1277)">
<title>models_diagram</title>
<polygon fill="white" stroke="none" points="-4,4 -4,-1277 686.97,-1277 686.97,4 -4,4"/>
<!-- _diagram_info -->
<g id="node1" class="node"><title>_diagram_info</title>
<text text-anchor="start" x="8" y="-1258.6" font-family="Times,serif" font-size="13.00">Models diagram</text>
<text text-anchor="start" x="8" y="-1245.6" font-family="Times,serif" font-size="13.00">Date: Aug 11 2014 &#45; 13:36</text>
<text text-anchor="start" x="8" y="-1232.6" font-family="Times,serif" font-size="13.00">Migration version: 20140807012019</text>
<text text-anchor="start" x="8" y="-1219.6" font-family="Times,serif" font-size="13.00">Generated by RailRoady 1.1.1</text>
<text text-anchor="start" x="8" y="-1206.6" font-family="Times,serif" font-size="13.00">http://railroady.prestonlee.com</text>
</g>
<!-- Group -->
<g id="node2" class="node"><title>Group</title>
<path fill="none" stroke="black" d="M346.676,-993.5C346.676,-993.5 490.7,-993.5 490.7,-993.5 496.7,-993.5 502.7,-999.5 502.7,-1005.5 502.7,-1005.5 502.7,-1151.5 502.7,-1151.5 502.7,-1157.5 496.7,-1163.5 490.7,-1163.5 490.7,-1163.5 346.676,-1163.5 346.676,-1163.5 340.676,-1163.5 334.676,-1157.5 334.676,-1151.5 334.676,-1151.5 334.676,-1005.5 334.676,-1005.5 334.676,-999.5 340.676,-993.5 346.676,-993.5"/>
<text text-anchor="middle" x="418.688" y="-1148.3" font-family="Times,serif" font-size="14.00">Group</text>
<polyline fill="none" stroke="black" points="334.676,-1141.5 502.7,-1141.5 "/>
<text text-anchor="start" x="342.676" y="-1126.3" font-family="Times,serif" font-size="14.00">id :integer</text>
<text text-anchor="start" x="342.676" y="-1112.3" font-family="Times,serif" font-size="14.00">name :string</text>
<text text-anchor="start" x="342.676" y="-1098.3" font-family="Times,serif" font-size="14.00">instrumentation_id :integer</text>
<text text-anchor="start" x="342.676" y="-1084.3" font-family="Times,serif" font-size="14.00">complete :boolean</text>
<text text-anchor="start" x="342.676" y="-1070.3" font-family="Times,serif" font-size="14.00">admin_id :integer</text>
<text text-anchor="start" x="342.676" y="-1056.3" font-family="Times,serif" font-size="14.00">created_at :datetime</text>
<text text-anchor="start" x="342.676" y="-1042.3" font-family="Times,serif" font-size="14.00">updated_at :datetime</text>
<text text-anchor="start" x="342.676" y="-1028.3" font-family="Times,serif" font-size="14.00">latitude :float</text>
<text text-anchor="start" x="342.676" y="-1014.3" font-family="Times,serif" font-size="14.00">longitude :float</text>
<text text-anchor="start" x="342.676" y="-1000.3" font-family="Times,serif" font-size="14.00">zipcode :string</text>
</g>
<!-- GroupPiece -->
<g id="node3" class="node"><title>GroupPiece</title>
<path fill="none" stroke="black" d="M478.182,-0.5C478.182,-0.5 587.193,-0.5 587.193,-0.5 593.193,-0.5 599.193,-6.5 599.193,-12.5 599.193,-12.5 599.193,-88.5 599.193,-88.5 599.193,-94.5 593.193,-100.5 587.193,-100.5 587.193,-100.5 478.182,-100.5 478.182,-100.5 472.182,-100.5 466.182,-94.5 466.182,-88.5 466.182,-88.5 466.182,-12.5 466.182,-12.5 466.182,-6.5 472.182,-0.5 478.182,-0.5"/>
<text text-anchor="middle" x="532.688" y="-85.3" font-family="Times,serif" font-size="14.00">GroupPiece</text>
<polyline fill="none" stroke="black" points="466.182,-78.5 599.193,-78.5 "/>
<text text-anchor="start" x="474.182" y="-63.3" font-family="Times,serif" font-size="14.00">id :integer</text>
<text text-anchor="start" x="474.182" y="-49.3" font-family="Times,serif" font-size="14.00">group_id :integer</text>
<text text-anchor="start" x="474.182" y="-35.3" font-family="Times,serif" font-size="14.00">piece_id :integer</text>
<text text-anchor="start" x="474.182" y="-21.3" font-family="Times,serif" font-size="14.00">created_at :datetime</text>
<text text-anchor="start" x="474.182" y="-7.3" font-family="Times,serif" font-size="14.00">updated_at :datetime</text>
</g>
<!-- Group&#45;&gt;GroupPiece -->
<g id="edge3" class="edge"><title>Group&#45;&gt;GroupPiece</title>
<path fill="none" stroke="#6f0c2f" d="M503.113,-986.696C567.315,-907.951 644.688,-787.702 644.688,-665.5 644.688,-665.5 644.688,-665.5 644.688,-379.5 644.688,-271.392 672.982,-234.214 625.688,-137 620.716,-126.78 613.946,-117.194 606.31,-108.404"/>
<ellipse fill="none" stroke="#6f0c2f" cx="500.273" cy="-990.149" rx="4.00002" ry="4.00002"/>
<polygon fill="#6f0c2f" stroke="#6f0c2f" points="606.168,-108.25 602.712,-97.8433 602.784,-104.57 599.4,-100.889 599.4,-100.889 599.4,-100.889 602.784,-104.57 596.087,-103.935 606.168,-108.25 606.168,-108.25"/>
</g>
<!-- Instrument -->
<g id="node4" class="node"><title>Instrument</title>
<path fill="none" stroke="black" d="M183.182,-870.5C183.182,-870.5 292.193,-870.5 292.193,-870.5 298.193,-870.5 304.193,-876.5 304.193,-882.5 304.193,-882.5 304.193,-944.5 304.193,-944.5 304.193,-950.5 298.193,-956.5 292.193,-956.5 292.193,-956.5 183.182,-956.5 183.182,-956.5 177.182,-956.5 171.182,-950.5 171.182,-944.5 171.182,-944.5 171.182,-882.5 171.182,-882.5 171.182,-876.5 177.182,-870.5 183.182,-870.5"/>
<text text-anchor="middle" x="237.688" y="-941.3" font-family="Times,serif" font-size="14.00">Instrument</text>
<polyline fill="none" stroke="black" points="171.182,-934.5 304.193,-934.5 "/>
<text text-anchor="start" x="179.182" y="-919.3" font-family="Times,serif" font-size="14.00">id :integer</text>
<text text-anchor="start" x="179.182" y="-905.3" font-family="Times,serif" font-size="14.00">name :string</text>
<text text-anchor="start" x="179.182" y="-891.3" font-family="Times,serif" font-size="14.00">created_at :datetime</text>
<text text-anchor="start" x="179.182" y="-877.3" font-family="Times,serif" font-size="14.00">updated_at :datetime</text>
</g>
<!-- Group&#45;&gt;Instrument -->
<g id="edge5" class="edge"><title>Group&#45;&gt;Instrument</title>
<path fill="none" stroke="#74edd4" d="M326.888,-994.829C314.982,-984.107 303.106,-973.413 292.085,-963.487"/>
<polygon fill="#74edd4" stroke="#74edd4" points="327.115,-995.034 331.535,-1005.07 330.831,-998.38 334.546,-1001.73 334.546,-1001.73 334.546,-1001.73 330.831,-998.38 337.558,-998.382 327.115,-995.034 327.115,-995.034"/>
<polygon fill="#74edd4" stroke="#74edd4" points="292.032,-963.44 287.613,-953.404 288.317,-960.094 284.601,-956.748 284.601,-956.748 284.601,-956.748 288.317,-960.094 281.59,-960.092 292.032,-963.44 292.032,-963.44"/>
</g>
<!-- Piece -->
<g id="node8" class="node"><title>Piece</title>
<path fill="none" stroke="black" d="M460.676,-137.5C460.676,-137.5 604.7,-137.5 604.7,-137.5 610.7,-137.5 616.7,-143.5 616.7,-149.5 616.7,-149.5 616.7,-253.5 616.7,-253.5 616.7,-259.5 610.7,-265.5 604.7,-265.5 604.7,-265.5 460.676,-265.5 460.676,-265.5 454.676,-265.5 448.676,-259.5 448.676,-253.5 448.676,-253.5 448.676,-149.5 448.676,-149.5 448.676,-143.5 454.676,-137.5 460.676,-137.5"/>
<text text-anchor="middle" x="532.688" y="-250.3" font-family="Times,serif" font-size="14.00">Piece</text>
<polyline fill="none" stroke="black" points="448.676,-243.5 616.7,-243.5 "/>
<text text-anchor="start" x="456.676" y="-228.3" font-family="Times,serif" font-size="14.00">id :integer</text>
<text text-anchor="start" x="456.676" y="-214.3" font-family="Times,serif" font-size="14.00">name :string</text>
<text text-anchor="start" x="456.676" y="-200.3" font-family="Times,serif" font-size="14.00">composer :string</text>
<text text-anchor="start" x="456.676" y="-186.3" font-family="Times,serif" font-size="14.00">level :integer</text>
<text text-anchor="start" x="456.676" y="-172.3" font-family="Times,serif" font-size="14.00">instrumentation_id :integer</text>
<text text-anchor="start" x="456.676" y="-158.3" font-family="Times,serif" font-size="14.00">created_at :datetime</text>
<text text-anchor="start" x="456.676" y="-144.3" font-family="Times,serif" font-size="14.00">updated_at :datetime</text>
</g>
<!-- Group&#45;&gt;Piece -->
<g id="edge4" class="edge"><title>Group&#45;&gt;Piece</title>
<path fill="none" stroke="#ab7c12" d="M459.604,-983.971C462.915,-974.941 466.01,-965.849 468.688,-957 534.016,-741.088 544.807,-683.514 566.688,-459 573.456,-389.551 578.124,-370.834 566.688,-302 565.242,-293.299 563.131,-284.338 560.657,-275.525"/>
<polygon fill="#ab7c12" stroke="#ab7c12" points="459.599,-983.986 451.871,-991.766 457.841,-988.667 456.084,-993.347 456.084,-993.347 456.084,-993.347 457.841,-988.667 460.297,-994.929 459.599,-983.986 459.599,-983.986"/>
<polygon fill="#ab7c12" stroke="#ab7c12" points="560.574,-275.246 562.04,-264.379 559.15,-270.453 557.726,-265.66 557.726,-265.66 557.726,-265.66 559.15,-270.453 553.413,-266.942 560.574,-275.246 560.574,-275.246"/>
</g>
<!-- Request -->
<g id="node9" class="node"><title>Request</title>
<path fill="none" stroke="black" d="M409.958,-302.5C409.958,-302.5 545.417,-302.5 545.417,-302.5 551.417,-302.5 557.417,-308.5 557.417,-314.5 557.417,-314.5 557.417,-446.5 557.417,-446.5 557.417,-452.5 551.417,-458.5 545.417,-458.5 545.417,-458.5 409.958,-458.5 409.958,-458.5 403.958,-458.5 397.958,-452.5 397.958,-446.5 397.958,-446.5 397.958,-314.5 397.958,-314.5 397.958,-308.5 403.958,-302.5 409.958,-302.5"/>
<text text-anchor="middle" x="477.688" y="-443.3" font-family="Times,serif" font-size="14.00">Request</text>
<polyline fill="none" stroke="black" points="397.958,-436.5 557.417,-436.5 "/>
<text text-anchor="start" x="405.958" y="-421.3" font-family="Times,serif" font-size="14.00">id :integer</text>
<text text-anchor="start" x="405.958" y="-407.3" font-family="Times,serif" font-size="14.00">user_id :integer</text>
<text text-anchor="start" x="405.958" y="-393.3" font-family="Times,serif" font-size="14.00">group_id :integer</text>
<text text-anchor="start" x="405.958" y="-379.3" font-family="Times,serif" font-size="14.00">user_approved :boolean</text>
<text text-anchor="start" x="405.958" y="-365.3" font-family="Times,serif" font-size="14.00">group_approved :boolean</text>
<text text-anchor="start" x="405.958" y="-351.3" font-family="Times,serif" font-size="14.00">finalized :boolean</text>
<text text-anchor="start" x="405.958" y="-337.3" font-family="Times,serif" font-size="14.00">part :string</text>
<text text-anchor="start" x="405.958" y="-323.3" font-family="Times,serif" font-size="14.00">created_at :datetime</text>
<text text-anchor="start" x="405.958" y="-309.3" font-family="Times,serif" font-size="14.00">updated_at :datetime</text>
</g>
<!-- Group&#45;&gt;Request -->
<g id="edge1" class="edge"><title>Group&#45;&gt;Request</title>
<path fill="none" stroke="#beb9d0" d="M444.42,-985.368C446.47,-975.841 448.286,-966.261 449.688,-957 475.661,-785.387 479.289,-582.027 478.93,-468.793"/>
<ellipse fill="none" stroke="#beb9d0" cx="443.514" cy="-989.444" rx="4.00001" ry="4.00001"/>
<polygon fill="#beb9d0" stroke="#beb9d0" points="478.93,-468.79 483.387,-458.77 478.908,-463.79 478.887,-458.79 478.887,-458.79 478.887,-458.79 478.908,-463.79 474.387,-458.809 478.93,-468.79 478.93,-468.79"/>
</g>
<!-- User -->
<g id="node10" class="node"><title>User</title>
<path fill="none" stroke="black" d="M269.231,-495.5C269.231,-495.5 396.145,-495.5 396.145,-495.5 402.145,-495.5 408.145,-501.5 408.145,-507.5 408.145,-507.5 408.145,-821.5 408.145,-821.5 408.145,-827.5 402.145,-833.5 396.145,-833.5 396.145,-833.5 269.231,-833.5 269.231,-833.5 263.231,-833.5 257.231,-827.5 257.231,-821.5 257.231,-821.5 257.231,-507.5 257.231,-507.5 257.231,-501.5 263.231,-495.5 269.231,-495.5"/>
<text text-anchor="middle" x="332.688" y="-818.3" font-family="Times,serif" font-size="14.00">User</text>
<polyline fill="none" stroke="black" points="257.231,-811.5 408.145,-811.5 "/>
<text text-anchor="start" x="265.231" y="-796.3" font-family="Times,serif" font-size="14.00">id :integer</text>
<text text-anchor="start" x="265.231" y="-782.3" font-family="Times,serif" font-size="14.00">uid :string</text>
<text text-anchor="start" x="265.231" y="-768.3" font-family="Times,serif" font-size="14.00">provider :string</text>
<text text-anchor="start" x="265.231" y="-754.3" font-family="Times,serif" font-size="14.00">oauth_token :string</text>
<text text-anchor="start" x="265.231" y="-740.3" font-family="Times,serif" font-size="14.00">oauth_expires_at :string</text>
<text text-anchor="start" x="265.231" y="-726.3" font-family="Times,serif" font-size="14.00">first_name :string</text>
<text text-anchor="start" x="265.231" y="-712.3" font-family="Times,serif" font-size="14.00">last_name :string</text>
<text text-anchor="start" x="265.231" y="-698.3" font-family="Times,serif" font-size="14.00">instrument_id :integer</text>
<text text-anchor="start" x="265.231" y="-684.3" font-family="Times,serif" font-size="14.00">gender :string</text>
<text text-anchor="start" x="265.231" y="-670.3" font-family="Times,serif" font-size="14.00">short_bio :text</text>
<text text-anchor="start" x="265.231" y="-656.3" font-family="Times,serif" font-size="14.00">image :string</text>
<text text-anchor="start" x="265.231" y="-642.3" font-family="Times,serif" font-size="14.00">email :string</text>
<text text-anchor="start" x="265.231" y="-628.3" font-family="Times,serif" font-size="14.00">zipcode :string</text>
<text text-anchor="start" x="265.231" y="-614.3" font-family="Times,serif" font-size="14.00">phone_number :string</text>
<text text-anchor="start" x="265.231" y="-600.3" font-family="Times,serif" font-size="14.00">level :string</text>
<text text-anchor="start" x="265.231" y="-586.3" font-family="Times,serif" font-size="14.00">video_sample :string</text>
<text text-anchor="start" x="265.231" y="-572.3" font-family="Times,serif" font-size="14.00">audio_sample :string</text>
<text text-anchor="start" x="265.231" y="-558.3" font-family="Times,serif" font-size="14.00">available :string</text>
<text text-anchor="start" x="265.231" y="-544.3" font-family="Times,serif" font-size="14.00">created_at :datetime</text>
<text text-anchor="start" x="265.231" y="-530.3" font-family="Times,serif" font-size="14.00">updated_at :datetime</text>
<text text-anchor="start" x="265.231" y="-516.3" font-family="Times,serif" font-size="14.00">latitude :float</text>
<text text-anchor="start" x="265.231" y="-502.3" font-family="Times,serif" font-size="14.00">longitude :float</text>
</g>
<!-- Group&#45;&gt;User -->
<g id="edge2" class="edge"><title>Group&#45;&gt;User</title>
<path fill="none" stroke="#95c16c" d="M393.237,-983.242C383.768,-941.737 372.987,-891.555 363.139,-843.453"/>
<polygon fill="#95c16c" stroke="#95c16c" points="393.269,-983.385 391.12,-994.138 394.388,-988.258 395.506,-993.131 395.506,-993.131 395.506,-993.131 394.388,-988.258 399.892,-992.125 393.269,-983.385 393.269,-983.385"/>
<polygon fill="#95c16c" stroke="#95c16c" points="363.117,-843.342 365.527,-832.644 362.117,-838.443 361.118,-833.544 361.118,-833.544 361.118,-833.544 362.117,-838.443 356.709,-834.443 363.117,-843.342 363.117,-843.342"/>
</g>
<!-- InstrumentInstrumentation -->
<g id="node5" class="node"><title>InstrumentInstrumentation</title>
<path fill="none" stroke="black" d="M72.6755,-144.5C72.6755,-144.5 216.7,-144.5 216.7,-144.5 222.7,-144.5 228.7,-150.5 228.7,-156.5 228.7,-156.5 228.7,-246.5 228.7,-246.5 228.7,-252.5 222.7,-258.5 216.7,-258.5 216.7,-258.5 72.6755,-258.5 72.6755,-258.5 66.6755,-258.5 60.6755,-252.5 60.6755,-246.5 60.6755,-246.5 60.6755,-156.5 60.6755,-156.5 60.6755,-150.5 66.6755,-144.5 72.6755,-144.5"/>
<text text-anchor="middle" x="144.688" y="-243.3" font-family="Times,serif" font-size="14.00">InstrumentInstrumentation</text>
<polyline fill="none" stroke="black" points="60.6755,-236.5 228.7,-236.5 "/>
<text text-anchor="start" x="68.6755" y="-221.3" font-family="Times,serif" font-size="14.00">id :integer</text>
<text text-anchor="start" x="68.6755" y="-207.3" font-family="Times,serif" font-size="14.00">instrument_id :integer</text>
<text text-anchor="start" x="68.6755" y="-193.3" font-family="Times,serif" font-size="14.00">instrumentation_id :integer</text>
<text text-anchor="start" x="68.6755" y="-179.3" font-family="Times,serif" font-size="14.00">quantity :integer</text>
<text text-anchor="start" x="68.6755" y="-165.3" font-family="Times,serif" font-size="14.00">created_at :datetime</text>
<text text-anchor="start" x="68.6755" y="-151.3" font-family="Times,serif" font-size="14.00">updated_at :datetime</text>
</g>
<!-- Instrument&#45;&gt;InstrumentInstrumentation -->
<g id="edge8" class="edge"><title>Instrument&#45;&gt;InstrumentInstrumentation</title>
<path fill="none" stroke="#20e059" d="M225.378,-862.488C223.297,-853.061 221.294,-843.256 219.688,-834 184.142,-629.149 160.308,-383.96 150.189,-268.628"/>
<ellipse fill="none" stroke="#20e059" cx="226.258" cy="-866.396" rx="4.00001" ry="4.00001"/>
<polygon fill="#20e059" stroke="#20e059" points="150.179,-268.508 153.794,-258.155 149.745,-263.527 149.311,-258.546 149.311,-258.546 149.311,-258.546 149.745,-263.527 144.828,-258.936 150.179,-268.508 150.179,-268.508"/>
</g>
<!-- Instrumentation -->
<g id="node6" class="node"><title>Instrumentation</title>
<path fill="none" stroke="black" d="M259.182,-337.5C259.182,-337.5 368.193,-337.5 368.193,-337.5 374.193,-337.5 380.193,-343.5 380.193,-349.5 380.193,-349.5 380.193,-411.5 380.193,-411.5 380.193,-417.5 374.193,-423.5 368.193,-423.5 368.193,-423.5 259.182,-423.5 259.182,-423.5 253.182,-423.5 247.182,-417.5 247.182,-411.5 247.182,-411.5 247.182,-349.5 247.182,-349.5 247.182,-343.5 253.182,-337.5 259.182,-337.5"/>
<text text-anchor="middle" x="313.688" y="-408.3" font-family="Times,serif" font-size="14.00">Instrumentation</text>
<polyline fill="none" stroke="black" points="247.182,-401.5 380.193,-401.5 "/>
<text text-anchor="start" x="255.182" y="-386.3" font-family="Times,serif" font-size="14.00">id :integer</text>
<text text-anchor="start" x="255.182" y="-372.3" font-family="Times,serif" font-size="14.00">name :string</text>
<text text-anchor="start" x="255.182" y="-358.3" font-family="Times,serif" font-size="14.00">created_at :datetime</text>
<text text-anchor="start" x="255.182" y="-344.3" font-family="Times,serif" font-size="14.00">updated_at :datetime</text>
</g>
<!-- Instrument&#45;&gt;Instrumentation -->
<g id="edge9" class="edge"><title>Instrument&#45;&gt;Instrumentation</title>
<path fill="none" stroke="#4e1ab5" d="M230.998,-859.965C222.55,-779.61 213.065,-622.122 248.688,-495 254.797,-473.198 266.008,-451.162 277.42,-432.38"/>
<polygon fill="#4e1ab5" stroke="#4e1ab5" points="231.042,-860.371 227.652,-870.8 231.584,-865.341 232.126,-870.312 232.126,-870.312 232.126,-870.312 231.584,-865.341 236.599,-869.825 231.042,-860.371 231.042,-860.371"/>
<polygon fill="#4e1ab5" stroke="#4e1ab5" points="277.536,-432.195 286.653,-426.102 280.186,-427.955 282.837,-423.716 282.837,-423.716 282.837,-423.716 280.186,-427.955 279.021,-421.33 277.536,-432.195 277.536,-432.195"/>
</g>
<!-- Instrument&#45;&gt;User -->
<g id="edge10" class="edge"><title>Instrument&#45;&gt;User</title>
<path fill="none" stroke="#b06e9e" d="M256.862,-862.647C259.237,-856.472 261.761,-849.91 264.39,-843.073"/>
<ellipse fill="none" stroke="#b06e9e" cx="255.347" cy="-866.586" rx="4.00001" ry="4.00001"/>
<polygon fill="#b06e9e" stroke="#b06e9e" points="264.448,-842.923 272.238,-835.205 266.243,-838.257 268.038,-833.59 268.038,-833.59 268.038,-833.59 266.243,-838.257 263.838,-831.974 264.448,-842.923 264.448,-842.923"/>
</g>
<!-- Instrumentation&#45;&gt;Group -->
<g id="edge13" class="edge"><title>Instrumentation&#45;&gt;Group</title>
<path fill="none" stroke="#469600" d="M360.529,-429.819C386.219,-456.886 413.511,-486.813 416.688,-495 450.162,-581.257 436.805,-841.809 426.462,-983.422"/>
<ellipse fill="none" stroke="#469600" cx="357.497" cy="-426.635" rx="4.00002" ry="4.00002"/>
<polygon fill="#469600" stroke="#469600" points="426.461,-983.436 421.235,-993.076 426.092,-988.422 425.723,-993.408 425.723,-993.408 425.723,-993.408 426.092,-988.422 430.211,-993.74 426.461,-983.436 426.461,-983.436"/>
</g>
<!-- Instrumentation&#45;&gt;InstrumentInstrumentation -->
<g id="edge16" class="edge"><title>Instrumentation&#45;&gt;InstrumentInstrumentation</title>
<path fill="none" stroke="#06e73a" d="M267.57,-331.199C248.405,-311.127 225.896,-287.552 205.415,-266.102"/>
<ellipse fill="none" stroke="#06e73a" cx="270.446" cy="-334.211" rx="4.00002" ry="4.00002"/>
<polygon fill="#06e73a" stroke="#06e73a" points="205.17,-265.845 201.518,-255.505 201.717,-262.229 198.264,-258.612 198.264,-258.612 198.264,-258.612 201.717,-262.229 195.009,-261.72 205.17,-265.845 205.17,-265.845"/>
</g>
<!-- Interest -->
<g id="node7" class="node"><title>Interest</title>
<path fill="none" stroke="black" d="M258.676,-151.5C258.676,-151.5 402.7,-151.5 402.7,-151.5 408.7,-151.5 414.7,-157.5 414.7,-163.5 414.7,-163.5 414.7,-239.5 414.7,-239.5 414.7,-245.5 408.7,-251.5 402.7,-251.5 402.7,-251.5 258.676,-251.5 258.676,-251.5 252.676,-251.5 246.676,-245.5 246.676,-239.5 246.676,-239.5 246.676,-163.5 246.676,-163.5 246.676,-157.5 252.676,-151.5 258.676,-151.5"/>
<text text-anchor="middle" x="330.688" y="-236.3" font-family="Times,serif" font-size="14.00">Interest</text>
<polyline fill="none" stroke="black" points="246.676,-229.5 414.7,-229.5 "/>
<text text-anchor="start" x="254.676" y="-214.3" font-family="Times,serif" font-size="14.00">id :integer</text>
<text text-anchor="start" x="254.676" y="-200.3" font-family="Times,serif" font-size="14.00">user_id :integer</text>
<text text-anchor="start" x="254.676" y="-186.3" font-family="Times,serif" font-size="14.00">instrumentation_id :integer</text>
<text text-anchor="start" x="254.676" y="-172.3" font-family="Times,serif" font-size="14.00">created_at :datetime</text>
<text text-anchor="start" x="254.676" y="-158.3" font-family="Times,serif" font-size="14.00">updated_at :datetime</text>
</g>
<!-- Instrumentation&#45;&gt;Interest -->
<g id="edge14" class="edge"><title>Instrumentation&#45;&gt;Interest</title>
<path fill="none" stroke="#6f007e" d="M318.531,-329.074C320.542,-308.139 322.89,-283.691 324.983,-261.893"/>
<ellipse fill="none" stroke="#6f007e" cx="318.142" cy="-333.122" rx="4" ry="4"/>
<polygon fill="#6f007e" stroke="#6f007e" points="325,-261.715 330.436,-252.191 325.478,-256.738 325.956,-251.761 325.956,-251.761 325.956,-251.761 325.478,-256.738 321.477,-251.331 325,-261.715 325,-261.715"/>
</g>
<!-- Instrumentation&#45;&gt;Piece -->
<g id="edge15" class="edge"><title>Instrumentation&#45;&gt;Piece</title>
<path fill="none" stroke="#ab17a5" d="M357.325,-331.432C367.278,-321.326 378.062,-311.008 388.688,-302 404.623,-288.49 422.385,-275.06 439.843,-262.642"/>
<ellipse fill="none" stroke="#ab17a5" cx="354.359" cy="-334.479" rx="4.00002" ry="4.00002"/>
<polygon fill="#ab17a5" stroke="#ab17a5" points="440.203,-262.389 450.97,-260.311 444.291,-259.51 448.379,-256.631 448.379,-256.631 448.379,-256.631 444.291,-259.51 445.789,-252.952 440.203,-262.389 440.203,-262.389"/>
</g>
<!-- Piece&#45;&gt;GroupPiece -->
<g id="edge19" class="edge"><title>Piece&#45;&gt;GroupPiece</title>
<path fill="none" stroke="#26eaa3" d="M532.688,-129.249C532.688,-123.077 532.688,-116.876 532.688,-110.814"/>
<ellipse fill="none" stroke="#26eaa3" cx="532.688" cy="-133.311" rx="4" ry="4"/>
<polygon fill="#26eaa3" stroke="#26eaa3" points="532.688,-110.775 537.188,-100.775 532.688,-105.775 532.688,-100.775 532.688,-100.775 532.688,-100.775 532.688,-105.775 528.188,-100.775 532.688,-110.775 532.688,-110.775"/>
</g>
<!-- User&#45;&gt;Group -->
<g id="edge23" class="edge"><title>User&#45;&gt;Group</title>
<path fill="none" stroke="#b4b9a0" d="M376.143,-841.646C386.506,-890.297 396.831,-941.217 404.788,-983.242"/>
<ellipse fill="none" stroke="#b4b9a0" cx="375.248" cy="-837.456" rx="4.00001" ry="4.00001"/>
<polygon fill="#b4b9a0" stroke="#b4b9a0" points="404.8,-983.304 402.225,-993.963 405.724,-988.218 406.648,-993.131 406.648,-993.131 406.648,-993.131 405.724,-988.218 411.07,-992.3 404.8,-983.304 404.8,-983.304"/>
</g>
<!-- User&#45;&gt;Instrumentation -->
<g id="edge25" class="edge"><title>User&#45;&gt;Instrumentation</title>
<path fill="none" stroke="#6f949f" d="M320.675,-485.199C319.429,-466.705 318.245,-449.133 317.217,-433.886"/>
<polygon fill="#6f949f" stroke="#6f949f" points="320.689,-485.41 316.871,-495.69 321.025,-490.399 321.361,-495.387 321.361,-495.387 321.361,-495.387 321.025,-490.399 325.851,-495.085 320.689,-485.41 320.689,-485.41"/>
<polygon fill="#6f949f" stroke="#6f949f" points="317.205,-433.697 321.022,-423.417 316.868,-428.708 316.532,-423.719 316.532,-423.719 316.532,-423.719 316.868,-428.708 312.042,-424.022 317.205,-433.697 317.205,-433.697"/>
</g>
<!-- User&#45;&gt;Interest -->
<g id="edge24" class="edge"><title>User&#45;&gt;Interest</title>
<path fill="none" stroke="#cf3ac4" d="M254.256,-513.606C247.485,-495.592 241.697,-477.145 237.688,-459 222.634,-390.865 212.077,-366.908 237.688,-302 243.761,-286.609 253.462,-272.197 264.355,-259.38"/>
<ellipse fill="none" stroke="#cf3ac4" cx="255.778" cy="-517.564" rx="4.00001" ry="4.00001"/>
<polygon fill="#cf3ac4" stroke="#cf3ac4" points="264.622,-259.081 274.631,-254.603 267.946,-255.346 271.27,-251.611 271.27,-251.611 271.27,-251.611 267.946,-255.346 267.908,-248.619 264.622,-259.081 264.622,-259.081"/>
</g>
<!-- User&#45;&gt;Request -->
<g id="edge22" class="edge"><title>User&#45;&gt;Request</title>
<path fill="none" stroke="#2b786a" d="M412.026,-509.201C419.341,-494.975 426.562,-480.931 433.388,-467.656"/>
<ellipse fill="none" stroke="#2b786a" cx="409.99" cy="-513.161" rx="4.00002" ry="4.00002"/>
<polygon fill="#2b786a" stroke="#2b786a" points="433.474,-467.489 442.048,-460.653 435.76,-463.042 438.046,-458.596 438.046,-458.596 438.046,-458.596 435.76,-463.042 434.044,-456.538 433.474,-467.489 433.474,-467.489"/>
</g>
<!-- ActiveRecord::Base -->
<g id="node11" class="node"><title>ActiveRecord::Base</title>
<ellipse fill="none" stroke="black" cx="306.688" cy="-1236.5" rx="81.1422" ry="18"/>
<text text-anchor="middle" x="306.688" y="-1232.3" font-family="Times,serif" font-size="14.00">ActiveRecord::Base</text>
</g>
<!-- ActiveRecord::Base&#45;&gt;Group -->
<g id="edge6" class="edge"><title>ActiveRecord::Base&#45;&gt;Group</title>
<path fill="none" stroke="black" d="M318.887,-1218.51C328.695,-1204.85 343.269,-1184.55 358.269,-1163.65"/>
</g>
<!-- ActiveRecord::Base&#45;&gt;GroupPiece -->
<g id="edge7" class="edge"><title>ActiveRecord::Base&#45;&gt;GroupPiece</title>
<path fill="none" stroke="black" d="M270.153,-1220.33C253.895,-1213.77 234.449,-1206.2 216.688,-1200 164.921,-1181.93 136.725,-1203.49 98.6877,-1164 19.1158,-1081.39 32.6877,-1029.2 32.6877,-914.5 32.6877,-914.5 32.6877,-914.5 32.6877,-379.5 32.6877,-271.392 -20.9312,-217.087 51.6877,-137 106.097,-76.9957 347.069,-58.935 465.93,-53.6319"/>
</g>
<!-- ActiveRecord::Base&#45;&gt;Instrument -->
<g id="edge11" class="edge"><title>ActiveRecord::Base&#45;&gt;Instrument</title>
<path fill="none" stroke="black" d="M302.978,-1218.24C292.439,-1169.21 262.095,-1028.04 246.771,-956.759"/>
</g>
<!-- ActiveRecord::Base&#45;&gt;InstrumentInstrumentation -->
<g id="edge12" class="edge"><title>ActiveRecord::Base&#45;&gt;InstrumentInstrumentation</title>
<path fill="none" stroke="black" d="M269.84,-1220.35C227.082,-1202.46 161.41,-1173.87 153.688,-1164 84.0643,-1074.99 104.688,-1027.51 104.688,-914.5 104.688,-914.5 104.688,-914.5 104.688,-663.5 104.688,-517.089 124.961,-345.497 136.641,-258.782"/>
</g>
<!-- ActiveRecord::Base&#45;&gt;Instrumentation -->
<g id="edge17" class="edge"><title>ActiveRecord::Base&#45;&gt;Instrumentation</title>
<path fill="none" stroke="black" d="M383.08,-1230.15C428.459,-1222.57 482.657,-1204.87 511.688,-1164 597.025,-1043.86 586.334,-730.734 440.688,-495 425.913,-471.087 410.12,-477.187 388.688,-459 375.982,-448.218 363.046,-435.566 351.575,-423.647"/>
</g>
<!-- ActiveRecord::Base&#45;&gt;Interest -->
<g id="edge18" class="edge"><title>ActiveRecord::Base&#45;&gt;Interest</title>
<path fill="none" stroke="black" d="M290.664,-1218.63C249.397,-1173.34 142.688,-1043.73 142.688,-914.5 142.688,-914.5 142.688,-914.5 142.688,-663.5 142.688,-499.321 136.282,-444 218.688,-302 229.588,-283.216 245.294,-266.1 261.509,-251.562"/>
</g>
<!-- ActiveRecord::Base&#45;&gt;Piece -->
<g id="edge20" class="edge"><title>ActiveRecord::Base&#45;&gt;Piece</title>
<path fill="none" stroke="black" d="M375.105,-1226.73C451.622,-1215.6 569.122,-1194.18 601.688,-1164 687.204,-1084.76 682.688,-1031.09 682.688,-914.5 682.688,-914.5 682.688,-914.5 682.688,-663.5 682.688,-515.159 611.588,-352.563 567.289,-265.654"/>
</g>
<!-- ActiveRecord::Base&#45;&gt;Request -->
<g id="edge21" class="edge"><title>ActiveRecord::Base&#45;&gt;Request</title>
<path fill="none" stroke="black" d="M387.127,-1233.66C441.552,-1227.88 510.583,-1210.87 550.688,-1164 723.876,-961.577 590.42,-612.745 517.328,-458.585"/>
</g>
<!-- ActiveRecord::Base&#45;&gt;User -->
<g id="edge26" class="edge"><title>ActiveRecord::Base&#45;&gt;User</title>
<path fill="none" stroke="black" d="M307.466,-1218.44C310.056,-1161.67 318.583,-974.713 325.012,-833.786"/>
</g>
</g>
</svg>
